<svg width="6" height="4" viewBox="0 0 6 4" fill="none" xmlns="http://www.w3.org/2000/svg">
<path d="M1.13668 0.499985H4.86335C4.92928 0.500307 4.99364 0.523429 5.0483 0.566425C5.10296 0.609422 5.14547 0.670363 5.17044 0.741542C5.19542 0.812721 5.20174 0.890942 5.18861 0.966313C5.17548 1.04169 5.14349 1.11082 5.09668 1.16498L3.23668 3.33498C3.2057 3.37143 3.16883 3.40036 3.12821 3.4201C3.08759 3.43985 3.04402 3.45001 3.00002 3.45001C2.95601 3.45001 2.91245 3.43985 2.87183 3.4201C2.83121 3.40036 2.79434 3.37143 2.76335 3.33498L0.903351 1.16498C0.856544 1.11082 0.824554 1.04169 0.811425 0.966313C0.798297 0.890942 0.80462 0.812721 0.829595 0.741542C0.85457 0.670363 0.897076 0.609422 0.951737 0.566425C1.0064 0.523429 1.07076 0.500307 1.13668 0.499985Z" fill="white"/>
</svg>
