<svg width="157" height="33" viewBox="0 0 157 33" fill="none" xmlns="http://www.w3.org/2000/svg">
<path d="M5.93752 11.4628C5.8256 11.4628 5.78082 11.5075 5.73605 11.6493L4.53848 14.8205C4.35492 15.2508 4.24276 15.7083 4.20644 16.1747C4.20644 16.5739 4.40603 16.863 5.09249 16.863H5.42641C5.69316 16.863 5.75844 16.9078 5.75844 17.0496C5.75844 17.2268 5.626 17.2716 5.38536 17.2716C4.67465 17.2716 3.72144 17.2044 3.03312 17.2044C2.78875 17.2044 1.56879 17.2716 0.421578 17.2716C0.132444 17.2716 0 17.2268 0 17.0496C0 16.9171 0.0876698 16.863 0.264881 16.863C0.494942 16.86 0.724692 16.8451 0.953208 16.8183C1.97357 16.6858 2.39516 15.9304 2.83912 14.8205L8.40915 0.886057C8.6759 0.2425 8.80835 0 9.03033 0C9.25231 0 9.36237 0.199582 9.58994 0.708832C10.1234 1.92879 13.6733 10.9834 15.0928 14.356C15.936 16.3519 16.5851 16.6635 17.0459 16.781C17.3531 16.8409 17.6655 16.8709 17.9786 16.8705C18.1651 16.8705 18.2658 16.8929 18.2658 17.0571C18.2658 17.2212 18.0662 17.279 17.2455 17.279C16.4247 17.279 14.8205 17.279 13.0521 17.2343C12.6529 17.2119 12.3862 17.2119 12.3862 17.0571C12.3862 16.9022 12.4757 16.8705 12.6977 16.8575C12.7457 16.8387 12.7893 16.8102 12.8258 16.7737C12.8622 16.7373 12.8907 16.6937 12.9095 16.6457C12.9282 16.5976 12.9368 16.5462 12.9347 16.4947C12.9326 16.4432 12.9199 16.3927 12.8973 16.3464L11.1214 11.6437C11.1085 11.5958 11.0793 11.5539 11.0387 11.5253C10.9982 11.4967 10.9489 11.4831 10.8994 11.487L5.93752 11.4628ZM10.4629 10.3435C10.5749 10.3435 10.5954 10.2783 10.5749 10.2111L8.58263 4.74739C8.56025 4.65972 8.53786 4.54781 8.47257 4.54781C8.40728 4.54781 8.36065 4.65972 8.33827 4.74739L6.29754 10.2055C6.27515 10.295 6.29753 10.3603 6.3852 10.3603L10.4629 10.3435Z" fill="#888888"/>
<path d="M20.4045 6.91873C20.4045 3.54611 20.4045 2.92495 20.3597 2.21424C20.3149 1.46808 20.1377 1.095 19.4046 0.9495C19.1189 0.899384 18.8291 0.876898 18.5391 0.882349C18.2966 0.882349 18.166 0.837567 18.166 0.68274C18.166 0.527913 18.3208 0.483154 18.6547 0.483154C19.8299 0.483154 21.229 0.550305 21.8949 0.550305C22.4265 0.550305 23.8256 0.483154 24.624 0.483154C24.956 0.483154 25.1108 0.527913 25.1108 0.68274C25.1108 0.837567 24.9784 0.882349 24.7564 0.882349C24.5402 0.883669 24.3247 0.906158 24.1129 0.9495C23.5141 1.05956 23.3369 1.43824 23.2921 2.21424C23.2473 2.92495 23.2473 3.54611 23.2473 6.91873V10.0246C23.2473 13.2424 23.8909 14.5967 24.9784 15.4827C25.9764 16.3035 26.9986 16.393 27.7522 16.393C28.89 16.4097 29.9889 15.9798 30.8133 15.1954C32.0351 13.9736 32.1004 11.9776 32.1004 9.69255V6.91873C32.1004 3.54611 32.1004 2.92495 32.0575 2.21424C32.0128 1.46808 31.8355 1.095 31.1024 0.9495C30.839 0.902043 30.5717 0.879561 30.3041 0.882349C30.0597 0.882349 29.931 0.837567 29.931 0.68274C29.931 0.527913 30.0858 0.483154 30.3973 0.483154C31.5278 0.483154 32.9268 0.550305 32.9473 0.550305C33.2141 0.550305 34.6131 0.483154 35.4786 0.483154C35.7883 0.483154 35.9431 0.527913 35.9431 0.68274C35.9431 0.837567 35.8107 0.882349 35.5439 0.882349C35.3277 0.883669 35.1122 0.906158 34.9004 0.9495C34.3016 1.05956 34.1244 1.43824 34.0796 2.21424C34.0348 2.92495 34.0348 3.54611 34.0348 6.91873V9.29336C34.0348 11.7557 33.7923 14.3747 31.927 15.9714C30.3526 17.3257 28.7558 17.5701 27.312 17.5701C26.1368 17.5701 24.0065 17.5029 22.3855 16.0386C21.2551 15.0182 20.4119 13.3748 20.4119 10.1589L20.4045 6.91873Z" fill="#888888"/>
<path d="M44.0995 1.72547L40.794 1.81501C39.5069 1.85978 38.9734 1.96983 38.6413 2.45856C38.4754 2.69508 38.3493 2.95723 38.2683 3.23456C38.2254 3.41177 38.1582 3.5013 38.0258 3.5013C37.8933 3.5013 37.8262 3.38939 37.8262 3.1469C37.8262 2.79061 38.2477 0.772252 38.2907 0.59504C38.3578 0.305906 38.425 0.173462 38.5574 0.173462C38.7439 0.173462 38.9566 0.395451 39.5125 0.438355C40.156 0.505508 41.0048 0.550273 41.7304 0.550273H50.5182C51.0302 0.550229 51.5414 0.512826 52.0479 0.438355C52.2459 0.39072 52.4464 0.353986 52.6485 0.328303C52.8033 0.328303 52.8257 0.460746 52.8257 0.794649C52.8257 1.261 52.7586 2.7906 52.7586 3.36886C52.7362 3.59085 52.6914 3.72329 52.559 3.72329C52.3724 3.72329 52.337 3.61137 52.3146 3.27933L52.2922 3.03495C52.2474 2.45855 51.6487 1.83739 49.6807 1.79262L46.8826 1.72547V10.8229C46.8826 12.8749 46.8826 14.6171 46.9927 15.5722C47.0598 16.1934 47.1923 16.6914 47.8582 16.7698C48.2334 16.8227 48.6116 16.8526 48.9905 16.8593C49.2349 16.8593 49.3449 16.9265 49.3449 17.0459C49.3449 17.2007 49.1584 17.2678 48.9233 17.2678C47.459 17.2678 46.0618 17.2007 45.4407 17.2007C44.9295 17.2007 43.5324 17.2678 42.6426 17.2678C42.3535 17.2678 42.1986 17.2007 42.1986 17.0459C42.1986 16.9358 42.2863 16.8593 42.553 16.8593C42.8217 16.8596 43.0895 16.8295 43.3514 16.7698C43.7954 16.6821 43.9297 16.1934 43.995 15.5498C44.1069 14.6171 44.1069 12.8655 44.1069 10.8229L44.0995 1.72547Z" fill="#888888"/>
<path d="M55.082 8.87175C55.082 5.07569 57.591 0.173462 64.2467 0.173462C69.7719 0.173462 73.2117 3.38938 73.2117 8.47068C73.2117 13.552 69.6675 17.57 64.0247 17.57C57.6563 17.57 55.082 12.7984 55.082 8.87175ZM70.104 9.29332C70.104 4.32208 67.2425 1.23859 63.6031 1.23859C61.0513 1.23859 58.145 2.65816 58.145 8.18343C58.145 12.7984 60.6968 16.4601 64.9574 16.4601C66.5094 16.4601 70.104 15.7046 70.104 9.29332Z" fill="#888888"/>
<path d="M78.7346 6.91873C78.7346 3.54611 78.7346 2.92495 78.6899 2.21424C78.6451 1.46808 78.4679 1.095 77.7348 0.9495C77.4497 0.899457 77.1605 0.876972 76.8711 0.882349C76.6268 0.882349 76.498 0.837567 76.498 0.68274C76.498 0.527913 76.6547 0.483154 76.9868 0.483154C78.1638 0.483154 79.561 0.550305 80.005 0.550305C81.0925 0.550305 81.958 0.483154 82.7116 0.483154C86.7278 0.483154 87.4385 2.6358 87.4385 3.81099C87.4385 5.63161 86.3958 6.71914 85.1739 7.69473C86.9946 8.31591 89.2125 9.89214 89.2125 12.4869C89.2125 14.8615 87.3714 17.3257 83.288 17.3257C83.0213 17.3257 82.3796 17.2809 81.736 17.2585C81.0925 17.2361 80.4042 17.1914 80.0703 17.1914C79.8278 17.1914 79.339 17.1914 78.8055 17.2138C78.272 17.2362 77.7199 17.2585 77.2759 17.2585C76.9868 17.2585 76.832 17.1914 76.832 17.0366C76.832 16.9265 76.9196 16.85 77.1864 16.85C77.455 16.8501 77.7228 16.8201 77.9848 16.7605C78.4287 16.6728 78.5444 16.1841 78.6283 15.5405C78.7402 14.6078 78.7402 12.8562 78.7402 10.8136L78.7346 6.91873ZM81.3965 7.2918C81.3965 7.46902 81.4637 7.51377 81.5532 7.53616C81.8978 7.59243 82.247 7.61494 82.596 7.60333C83.3272 7.60333 83.8159 7.51379 84.1928 7.17989C84.7692 6.7154 85.1031 5.917 85.1031 4.82948C85.1031 3.33718 84.2375 1.38973 82.3292 1.38973C82.084 1.37938 81.8383 1.39438 81.5961 1.4345C81.4413 1.4774 81.3965 1.56694 81.3965 1.80757V7.2918ZM84.3252 9.06765C83.8607 8.73375 83.3496 8.57893 82.4841 8.53416C82.0849 8.51177 81.8629 8.51177 81.5309 8.51177C81.4413 8.51177 81.3965 8.55653 81.3965 8.66846V13.927C81.3965 15.3913 81.4637 15.7681 82.1744 16.0572C82.6901 16.2561 83.2414 16.3462 83.7936 16.3221C84.7915 16.3221 86.4778 15.7905 86.4778 13.483C86.4778 12.1101 86.0115 10.2466 84.3177 9.07139L84.3252 9.06765Z" fill="#888888"/>
<path d="M94.8655 6.91871C94.8655 3.54609 94.8655 2.92493 94.8207 2.21421C94.776 1.46806 94.5988 1.09498 93.8675 0.949479C93.5818 0.899534 93.292 0.87705 93.002 0.882328C92.7576 0.882328 92.6289 0.837546 92.6289 0.682719C92.6289 0.527892 92.7856 0.483133 93.1176 0.483133C93.7164 0.483133 94.36 0.505517 94.9159 0.505517C95.4717 0.505517 96.0034 0.550284 96.313 0.550284C97.0237 0.550284 101.439 0.550285 101.861 0.527901C102.18 0.500104 102.499 0.455906 102.814 0.395466C102.93 0.35515 103.049 0.325168 103.17 0.305908C103.28 0.305908 103.303 0.395459 103.303 0.505517C103.216 0.982733 103.154 1.46398 103.116 1.94745C103.094 2.16944 103.049 3.14689 103.004 3.41178C102.984 3.5237 102.939 3.65615 102.784 3.65615C102.629 3.65615 102.583 3.54609 102.583 3.34649C102.585 3.07409 102.54 2.80333 102.45 2.54624C102.295 2.14704 102.077 1.88218 100.958 1.74787C100.585 1.7031 98.2512 1.66018 97.8072 1.66018C97.6953 1.66018 97.6524 1.72548 97.6524 1.88217V7.4951C97.6524 7.64993 97.6748 7.73948 97.8072 7.73948C98.2959 7.73948 100.848 7.73948 101.351 7.69471C101.855 7.64994 102.217 7.58465 102.417 7.36267C102.571 7.17613 102.661 7.07352 102.773 7.07352C102.885 7.07352 102.928 7.11829 102.928 7.26006C102.928 7.40183 102.838 7.74881 102.741 8.88109C102.719 9.32319 102.652 10.2111 102.652 10.3734C102.652 10.5357 102.652 10.7968 102.452 10.7968C102.425 10.7988 102.398 10.7949 102.373 10.7855C102.348 10.776 102.325 10.7612 102.306 10.7421C102.287 10.7229 102.272 10.6999 102.263 10.6746C102.254 10.6493 102.25 10.6222 102.252 10.5954C102.241 10.3275 102.211 10.0607 102.163 9.79698C102.053 9.35302 101.741 9.021 100.921 8.93146C100.499 8.88856 98.309 8.86616 97.7699 8.86616C97.6598 8.86616 97.6375 8.95384 97.6375 9.08815V10.8397C97.6375 11.5859 97.6151 13.6378 97.6375 14.2795C97.6804 15.811 98.0367 16.1449 100.299 16.1449C100.876 16.1449 101.808 16.1449 102.385 15.88C102.961 15.6151 103.228 15.1469 103.385 14.2366C103.428 13.9922 103.472 13.9046 103.627 13.9046C103.782 13.9046 103.814 14.0911 103.814 14.3038C103.776 15.1303 103.679 15.9532 103.525 16.7661C103.37 17.3443 103.17 17.3443 102.327 17.3443C100.661 17.3443 99.4413 17.2996 98.4881 17.2772C97.5349 17.2548 96.8447 17.21 96.1806 17.21C95.9362 17.21 95.4475 17.21 94.9159 17.2324C94.3842 17.2548 93.8283 17.2772 93.3844 17.2772C93.0953 17.2772 92.9404 17.21 92.9404 17.0552C92.9404 16.9451 93.03 16.8687 93.2948 16.8687C93.5641 16.8687 93.8325 16.8387 94.0951 16.7791C94.5372 16.6914 94.6547 16.2027 94.7368 15.5592C94.8487 14.6265 94.8487 12.8749 94.8487 10.8323L94.8655 6.91871Z" fill="#888888"/>
<path d="M109.774 6.91873C109.774 3.54611 109.774 2.92495 109.729 2.21424C109.684 1.46808 109.507 1.095 108.774 0.9495C108.488 0.899384 108.198 0.876898 107.908 0.882349C107.666 0.882349 107.535 0.837567 107.535 0.68274C107.535 0.527913 107.692 0.483154 108.024 0.483154C109.199 0.483154 110.598 0.550305 111.064 0.550305C111.811 0.550305 113.504 0.483154 114.193 0.483154C115.59 0.483154 117.077 0.617461 118.276 1.43823C118.743 1.79564 119.122 2.25545 119.383 2.78228C119.644 3.3091 119.781 3.88888 119.783 4.47695C119.783 6.12035 119.097 7.62756 116.855 9.44818C118.83 11.9329 120.362 13.9083 121.671 15.2831C122.913 16.5702 123.822 16.7269 124.156 16.7922C124.36 16.8332 124.568 16.8557 124.777 16.8594C124.954 16.8594 125.044 16.9265 125.044 17.0459C125.044 17.2231 124.887 17.2679 124.622 17.2679H122.514C121.27 17.2679 120.716 17.1559 120.14 16.8463C119.184 16.3352 118.341 15.2924 117.099 13.5837C116.211 12.3638 115.191 10.8547 114.903 10.5226C114.854 10.466 114.792 10.4221 114.722 10.3948C114.652 10.3675 114.577 10.3576 114.502 10.366L112.574 10.3231C112.462 10.3231 112.387 10.366 112.387 10.5096V10.8193C112.387 12.8842 112.387 14.6358 112.499 15.5685C112.566 16.2121 112.699 16.7008 113.364 16.7885C113.725 16.8379 114.088 16.8678 114.452 16.878C114.639 16.878 114.717 16.9452 114.717 17.0646C114.717 17.2194 114.562 17.2865 114.273 17.2865C112.986 17.2865 111.344 17.2194 111.012 17.2194C110.591 17.2194 109.192 17.2865 108.306 17.2865C108.016 17.2865 107.862 17.2194 107.862 17.0646C107.862 16.9545 107.949 16.878 108.216 16.878C108.485 16.8781 108.752 16.8481 109.014 16.7885C109.458 16.7008 109.574 16.2121 109.658 15.5685C109.77 14.6358 109.77 12.8842 109.77 10.8416L109.774 6.91873ZM112.385 8.67219C112.385 8.91469 112.43 9.00423 112.585 9.07139C113.131 9.22611 113.696 9.30087 114.264 9.29336C115.152 9.29336 115.441 9.20382 115.84 8.92028C116.506 8.43341 117.146 7.41119 117.146 5.59244C117.146 2.44181 115.06 1.5315 113.751 1.5315C113.356 1.51314 112.961 1.54321 112.574 1.62103C112.419 1.6658 112.374 1.75348 112.374 1.93069L112.385 8.67219Z" fill="#888888"/>
<path d="M134.159 15.9714C136.422 15.9714 137.287 15.4118 137.642 14.7515C137.826 14.4173 137.961 14.0587 138.043 13.6863C138.086 13.4643 138.131 13.3319 138.263 13.3319C138.45 13.3319 138.485 13.4867 138.485 14.0183C138.485 14.7291 138.198 16.171 138.043 16.7269C137.931 17.1261 137.776 17.3033 137.377 17.3033C133.671 17.3033 129.943 17.1914 125.461 17.1914C125.217 17.1914 125.088 17.1261 125.088 16.9694C125.088 16.8127 125.153 16.7045 125.42 16.3034C128.548 11.4217 131.833 6.41693 134.807 1.72549H130.453C129.322 1.72549 127.968 1.79264 127.257 2.19184C126.944 2.37661 126.675 2.62706 126.469 2.92592C126.262 3.22478 126.122 3.56491 126.06 3.92289C126.015 4.23255 125.927 4.32209 125.793 4.32209C125.659 4.32209 125.606 4.21203 125.606 3.94901C125.606 3.4379 125.94 1.41955 126.05 0.75361C126.095 0.442091 126.183 0.332031 126.317 0.332031C126.517 0.332031 126.649 0.464488 127.205 0.486873C129.313 0.576411 130.376 0.554024 131.287 0.554024H138.063C138.285 0.554024 138.437 0.621178 138.437 0.740562C138.41 0.894211 138.346 1.03895 138.25 1.16214C135.189 6.13339 131.816 11.2147 128.688 15.9845L134.159 15.9714Z" fill="#888888"/>
<path d="M144.608 11.4628C144.496 11.4628 144.451 11.5075 144.408 11.6493L143.208 14.8205C143.025 15.2508 142.913 15.7083 142.876 16.1747C142.876 16.5739 143.076 16.863 143.764 16.863H144.096C144.363 16.863 144.43 16.9078 144.43 17.0496C144.43 17.2268 144.296 17.2716 144.057 17.2716C143.348 17.2716 142.393 17.2044 141.705 17.2044C141.461 17.2044 140.241 17.2716 139.093 17.2716C138.804 17.2716 138.672 17.2268 138.672 17.0496C138.672 16.9171 138.76 16.863 138.937 16.863C139.167 16.86 139.397 16.8451 139.625 16.8183C140.645 16.6858 141.067 15.9304 141.511 14.8205L147.081 0.886057C147.348 0.2425 147.48 0 147.702 0C147.924 0 148.034 0.199582 148.262 0.708832C148.795 1.92879 152.345 10.9834 153.765 14.356C154.608 16.3519 155.257 16.6635 155.718 16.781C156.025 16.8409 156.337 16.8709 156.65 16.8705C156.828 16.8705 156.938 16.8929 156.938 17.0571C156.938 17.2212 156.738 17.279 155.917 17.279C155.097 17.279 153.492 17.279 151.724 17.2343C151.325 17.2119 151.058 17.2119 151.058 17.0571C151.058 16.9022 151.148 16.8705 151.37 16.8575C151.418 16.8387 151.461 16.8102 151.498 16.7737C151.534 16.7373 151.563 16.6937 151.581 16.6457C151.6 16.5976 151.609 16.5462 151.607 16.4947C151.605 16.4432 151.592 16.3927 151.569 16.3464L149.793 11.6437C149.78 11.5958 149.751 11.5539 149.711 11.5253C149.67 11.4967 149.621 11.4831 149.571 11.487L144.608 11.4628ZM149.133 10.3435C149.245 10.3435 149.267 10.2783 149.245 10.2111L147.247 4.74739C147.225 4.65972 147.202 4.54781 147.137 4.54781C147.072 4.54781 147.025 4.65972 147.003 4.74739L144.962 10.2055C144.94 10.295 144.962 10.3603 145.051 10.3603L149.133 10.3435Z" fill="#888888"/>
<path d="M27.651 28.6733C27.5335 28.3916 27.4458 28.3357 27.2612 28.2834C27.1958 28.2681 27.1287 28.2612 27.0616 28.2629C27.0149 28.2629 27 28.248 27 28.2163C27 28.1846 27.056 28.1715 27.1324 28.1715C27.4048 28.1715 27.6921 28.1864 27.8786 28.1864C28.0073 28.1864 28.2517 28.1715 28.511 28.1715C28.5725 28.1715 28.6285 28.1808 28.6285 28.2163C28.6285 28.2517 28.5968 28.2629 28.552 28.2629C28.4829 28.2562 28.4132 28.2685 28.3505 28.2984C28.3337 28.3106 28.3202 28.327 28.3114 28.346C28.3026 28.3649 28.2987 28.3857 28.3002 28.4065C28.3216 28.543 28.3612 28.676 28.4177 28.802L29.3 31.1319H29.3205C29.5425 30.5723 30.2085 28.9158 30.3334 28.5763C30.3572 28.5166 30.3723 28.4538 30.3782 28.3898C30.3792 28.3685 30.3732 28.3474 30.3611 28.3299C30.3489 28.3123 30.3314 28.2993 30.3111 28.2928C30.245 28.2738 30.1764 28.265 30.1077 28.2666C30.0611 28.2666 30.0201 28.2667 30.0201 28.2256C30.0201 28.1846 30.0648 28.1752 30.1637 28.1752C30.4193 28.1752 30.6356 28.1902 30.7028 28.1902C30.7699 28.1902 31.0311 28.1752 31.1841 28.1752C31.2512 28.1752 31.2922 28.1846 31.2922 28.22C31.2922 28.2555 31.2624 28.2666 31.2102 28.2666C31.122 28.262 31.0344 28.2834 30.9583 28.3282C30.8912 28.3748 30.8147 28.4625 30.6767 28.7908C30.4771 29.2721 30.3372 29.55 30.0611 30.1824C29.7328 30.9286 29.4903 31.4882 29.3784 31.7475C29.2441 32.0441 29.2142 32.1205 29.1415 32.1205C29.0687 32.1205 29.0445 32.0496 28.9549 31.809L27.651 28.6733Z" fill="#FF0000"/>
<path d="M32.7908 30.7122C32.7647 30.7122 32.7554 30.7122 32.7442 30.7532L32.4681 31.4863C32.4249 31.5858 32.3984 31.6916 32.3898 31.7997C32.3898 31.893 32.4364 31.9583 32.5968 31.9583H32.6733C32.7349 31.9583 32.7498 31.9694 32.7498 31.9993C32.7498 32.0291 32.7199 32.0515 32.6621 32.0515C32.4979 32.0515 32.2778 32.0366 32.1193 32.0366C32.0614 32.0366 31.7798 32.0515 31.513 32.0515C31.4459 32.0515 31.416 32.0403 31.416 31.9993C31.416 31.9583 31.4365 31.9583 31.4776 31.9583C31.5306 31.9581 31.5835 31.9549 31.6361 31.9489C31.8712 31.9172 31.97 31.7437 32.0726 31.4863L33.3616 28.2629C33.4232 28.1137 33.453 28.0577 33.5052 28.0577C33.5575 28.0577 33.5817 28.1044 33.6321 28.2219C33.7552 28.5054 34.5778 30.5984 34.9062 31.3781C35.0927 31.8407 35.2494 31.9135 35.3576 31.9377C35.4281 31.9522 35.5001 31.9591 35.5721 31.9583C35.615 31.9583 35.6392 31.9583 35.6392 31.9993C35.6392 32.0403 35.5945 32.0515 35.4042 32.0515C35.2139 32.0515 34.8446 32.0515 34.4342 32.0403C34.3409 32.0403 34.2794 32.0403 34.2794 31.9993C34.2794 31.9583 34.2999 31.9583 34.3521 31.9545C34.3633 31.9501 34.3735 31.9434 34.3819 31.9349C34.3903 31.9263 34.3969 31.9161 34.4011 31.9048C34.4053 31.8935 34.4071 31.8815 34.4064 31.8695C34.4057 31.8575 34.4024 31.8458 34.3969 31.8351L33.9865 30.7476C33.9835 30.7368 33.9769 30.7273 33.9677 30.7209C33.9585 30.7144 33.9474 30.7113 33.9362 30.7122H32.7908ZM33.8373 30.4548C33.8634 30.4548 33.869 30.4398 33.8634 30.4249L33.4027 29.1565C33.4027 29.1359 33.3915 29.1098 33.3765 29.1098C33.3616 29.1098 33.3504 29.1359 33.3448 29.1565L32.8729 30.4193C32.8729 30.4398 32.8729 30.4548 32.8934 30.4548H33.8373Z" fill="#FF0000"/>
<path d="M36.8704 31.9899C36.7884 31.9545 36.7734 31.9284 36.7734 31.8146C36.7734 31.5329 36.7939 31.2251 36.7995 31.143C36.8051 31.061 36.8201 31.0087 36.8611 31.0087C36.9021 31.0087 36.9115 31.0554 36.9115 31.0964C36.9159 31.1851 36.9315 31.2728 36.9581 31.3576C37.001 31.5157 37.0977 31.654 37.2314 31.7486C37.3652 31.8433 37.5278 31.8883 37.6912 31.8761C38.1538 31.8761 38.3795 31.5627 38.3795 31.2922C38.3795 31.0218 38.303 30.8035 37.8759 30.4696L37.6408 30.2831C37.0812 29.8429 36.8816 29.4828 36.8816 29.0669C36.8816 28.5072 37.3536 28.0968 38.0661 28.0968C38.2967 28.0944 38.5264 28.1239 38.7489 28.1845C38.7955 28.1845 38.8216 28.2106 38.8216 28.2461C38.8216 28.3132 38.8011 28.4606 38.8011 28.8617C38.8011 28.9755 38.7843 29.0165 38.7433 29.0165C38.7022 29.0165 38.6929 28.9848 38.6929 28.9232C38.6829 28.7992 38.6362 28.681 38.5586 28.5837C38.4931 28.4992 38.4078 28.4321 38.3102 28.3885C38.2125 28.3449 38.1056 28.3261 37.999 28.3338C37.6259 28.3338 37.3871 28.5539 37.3871 28.8617C37.3871 29.0986 37.5047 29.2777 37.9318 29.6078L38.0755 29.716C38.6966 30.1842 38.9168 30.5368 38.9168 31.0218C38.9198 31.1997 38.8769 31.3754 38.7923 31.5319C38.7077 31.6884 38.5841 31.8204 38.4336 31.9153C38.1879 32.0625 37.9047 32.1351 37.6185 32.1242C37.3624 32.1337 37.1072 32.0878 36.8704 31.9899ZM37.2752 27.0373C37.29 27.019 37.3103 27.0059 37.3331 27C37.3536 27 37.3741 27.0112 37.4207 27.056C37.5649 27.1878 37.7155 27.3123 37.8721 27.429C37.8895 27.4469 37.9126 27.4582 37.9374 27.4608C37.9648 27.4603 37.9917 27.4533 38.0158 27.4403C38.2003 27.3258 38.3785 27.2013 38.5493 27.0672C38.6108 27.0168 38.637 27 38.6612 27C38.6677 27.0002 38.6742 27.0018 38.6801 27.0046C38.686 27.0074 38.6913 27.0113 38.6957 27.0162C38.7 27.021 38.7033 27.0268 38.7054 27.033C38.7075 27.0392 38.7083 27.0457 38.7078 27.0522C38.7028 27.0828 38.6861 27.1102 38.6612 27.1287C38.6052 27.1903 38.0568 27.7033 37.9841 27.7648C37.9113 27.8264 37.9076 27.8264 37.8759 27.8264C37.8442 27.8264 37.8404 27.8114 37.7845 27.7704C37.7285 27.7294 37.251 27.3656 37.1726 27.3078C37.0943 27.25 37.1017 27.2518 37.1017 27.2369C37.1038 27.2169 37.113 27.1983 37.1279 27.1847L37.2752 27.0373Z" fill="#FF0000"/>
<path d="M43.7373 29.6601C43.7373 28.8785 43.7373 28.7274 43.7261 28.5707C43.7149 28.414 43.6758 28.3152 43.506 28.2779C43.4394 28.267 43.372 28.262 43.3046 28.2629C43.2486 28.2629 43.2188 28.2629 43.2188 28.2163C43.2188 28.1697 43.2542 28.1715 43.3307 28.1715C43.603 28.1715 43.9257 28.1865 44.0768 28.1865C44.2876 28.1865 44.5861 28.1715 44.823 28.1715C45.4647 28.1715 45.696 28.386 45.7781 28.4625C45.9394 28.6257 46.0316 28.8449 46.0355 29.0744C46.0405 29.2406 46.0112 29.4062 45.9492 29.5606C45.8873 29.7149 45.7941 29.8548 45.6755 29.9715C45.5569 30.0882 45.4155 30.179 45.2601 30.2384C45.1048 30.2979 44.9388 30.3245 44.7726 30.3167C44.7366 30.3195 44.7004 30.3195 44.6644 30.3167C44.6383 30.3167 44.6029 30.3167 44.6029 30.2701C44.6029 30.2234 44.6383 30.2141 44.7465 30.2141C45.0338 30.2141 45.4348 29.8914 45.4348 29.3672C45.4431 29.2246 45.4204 29.0819 45.3682 28.9489C45.316 28.8159 45.2357 28.6958 45.1326 28.5968C44.992 28.4684 44.8083 28.3972 44.6178 28.3972C44.5506 28.3951 44.4835 28.402 44.4182 28.4178C44.3921 28.4178 44.3772 28.4588 44.3772 28.5147V30.5667C44.3772 31.0386 44.3772 31.4434 44.4033 31.6654C44.4182 31.809 44.4499 31.921 44.6029 31.9415C44.69 31.9541 44.7779 31.9609 44.8659 31.962C44.9218 31.962 44.9461 31.9788 44.9461 32.003C44.9461 32.0273 44.9051 32.0553 44.8491 32.0553C44.5115 32.0553 44.1869 32.0403 44.0544 32.0403C43.922 32.0403 43.6123 32.0553 43.4072 32.0553C43.34 32.0553 43.3046 32.0403 43.3046 32.003C43.3046 31.9657 43.3251 31.962 43.3866 31.962C43.4494 31.9626 43.512 31.9557 43.5732 31.9415C43.6758 31.921 43.7019 31.809 43.7224 31.6598C43.7485 31.4434 43.7485 31.0386 43.7485 30.5667L43.7373 29.6601Z" fill="#FF0000"/>
<path d="M47.9033 29.6601C47.9033 28.8785 47.9033 28.7274 47.894 28.5707C47.8847 28.414 47.8418 28.3152 47.6739 28.2779C47.6073 28.267 47.5399 28.262 47.4724 28.2629C47.4165 28.2629 47.3848 28.2629 47.3848 28.2163C47.3848 28.1697 47.4221 28.1715 47.4986 28.1715C47.7709 28.1715 48.0936 28.1865 48.2447 28.1865C48.3678 28.1865 48.6905 28.1715 48.8752 28.1715C48.9517 28.1715 48.989 28.1808 48.989 28.2163C48.989 28.2517 48.9573 28.2629 48.9069 28.2629C48.8568 28.2635 48.8069 28.2685 48.7577 28.2779C48.6197 28.304 48.5712 28.3916 48.5712 28.5707C48.5712 28.7498 48.5618 28.8785 48.5618 29.6601V30.3783C48.5618 31.1244 48.7092 31.4359 48.961 31.6411C49.1419 31.7875 49.3702 31.8625 49.6027 31.8519C49.8663 31.8556 50.1207 31.7558 50.3116 31.574C50.5932 31.2923 50.6081 30.8278 50.6081 30.3018V29.6601C50.6081 28.8785 50.6082 28.7274 50.5988 28.5707C50.5895 28.414 50.5466 28.3152 50.3787 28.2779C50.3171 28.2675 50.2547 28.2625 50.1922 28.2629C50.1343 28.2629 50.1045 28.2629 50.1045 28.2163C50.1045 28.1697 50.1399 28.1715 50.2127 28.1715C50.4738 28.1715 50.7966 28.1865 50.8021 28.1865C50.8637 28.1865 51.1864 28.1715 51.3879 28.1715C51.4588 28.1715 51.4961 28.1808 51.4961 28.2163C51.4961 28.2517 51.4644 28.2629 51.4028 28.2629C51.3527 28.2635 51.3028 28.2685 51.2536 28.2779C51.1155 28.304 51.067 28.3916 51.067 28.5707C51.067 28.7498 51.0577 28.8785 51.0577 29.6601V30.2085C51.0577 30.7793 51.0017 31.3837 50.5708 31.7531C50.2751 32.0091 49.8928 32.1425 49.502 32.1261C49.0914 32.1544 48.6851 32.0287 48.3622 31.7736C48.1011 31.5367 47.9052 31.1561 47.9052 30.4118L47.9033 29.6601Z" fill="#FF0000"/>
<path d="M54.209 28.4588L53.4442 28.4793C53.1457 28.4793 53.0226 28.5147 52.9461 28.6285C52.9073 28.6857 52.8777 28.7486 52.8585 28.8151C52.8491 28.8561 52.8342 28.8766 52.8025 28.8766C52.7708 28.8766 52.7559 28.8505 52.7559 28.7945C52.7559 28.7386 52.8547 28.2349 52.864 28.2032C52.8734 28.1715 52.8958 28.1062 52.9256 28.1062C52.9967 28.134 53.0705 28.1547 53.1457 28.1678C53.295 28.1827 53.4908 28.1939 53.6606 28.1939H55.692C55.8106 28.1943 55.9291 28.1855 56.0464 28.1678C56.0919 28.1567 56.138 28.148 56.1844 28.1416C56.2217 28.1416 56.2273 28.1734 56.2273 28.2498C56.2273 28.358 56.2105 28.7124 56.2105 28.8449C56.2105 28.8971 56.1956 28.927 56.1639 28.927C56.1322 28.927 56.1135 28.9027 56.108 28.8244V28.7684C56.0986 28.636 55.9606 28.4905 55.5036 28.4811L54.8563 28.4662V30.5704C54.8563 31.0423 54.8563 31.4471 54.8824 31.6691C54.8973 31.8127 54.929 31.9246 55.082 31.9452C55.1685 31.9577 55.2557 31.9645 55.3431 31.9657C55.401 31.9657 55.4252 31.9825 55.4252 32.0067C55.4252 32.031 55.3842 32.0589 55.3282 32.0589C54.9906 32.0589 54.666 32.044 54.5224 32.044C54.3787 32.044 54.0821 32.0589 53.8751 32.0589C53.8098 32.0589 53.7725 32.044 53.7725 32.0067C53.7725 31.9694 53.793 31.9657 53.8546 31.9657C53.9174 31.9665 53.98 31.9596 54.0411 31.9452C54.1456 31.9246 54.1754 31.8127 54.1903 31.6635C54.2165 31.4471 54.2165 31.0423 54.2165 30.5704L54.209 28.4588Z" fill="#FF0000"/>
<path d="M60.7647 29.6601C60.7647 28.8785 60.7647 28.7274 60.7535 28.5707C60.7423 28.414 60.7031 28.3152 60.5334 28.2779C60.4668 28.267 60.3994 28.262 60.3319 28.2629C60.2759 28.2629 60.2461 28.2629 60.2461 28.2163C60.2461 28.1697 60.2815 28.1715 60.358 28.1715C60.6304 28.1715 60.9531 28.1865 61.1042 28.1865C61.2553 28.1865 61.5873 28.1715 61.8951 28.1715C62.5368 28.1715 63.3874 28.1715 63.947 28.7554C64.2777 29.1085 64.456 29.5776 64.4432 30.0612C64.4506 30.5934 64.2498 31.1075 63.8836 31.4938C63.6467 31.7344 63.1132 32.1 62.1637 32.1C61.9772 32.1 61.7682 32.0832 61.5724 32.0683C61.3765 32.0534 61.1993 32.0385 61.0706 32.0385C61.0128 32.0385 60.9008 32.0385 60.7777 32.0385C60.6546 32.0385 60.5259 32.0497 60.4233 32.0497C60.3561 32.0497 60.3207 32.0347 60.3207 31.9974C60.3207 31.9601 60.3412 31.9564 60.4028 31.9564C60.4656 31.957 60.5282 31.9501 60.5893 31.9359C60.6919 31.9154 60.718 31.8034 60.7386 31.6542C60.7647 31.4378 60.7647 31.033 60.7647 30.5611V29.6601ZM61.4064 30.2197C61.4064 30.7644 61.4064 31.1524 61.4157 31.2569C61.4113 31.3891 61.4303 31.5211 61.4717 31.6467C61.5388 31.7456 61.7384 31.8519 62.1451 31.8519C62.6674 31.8519 63.018 31.7493 63.3258 31.4788C63.6336 31.2084 63.7567 30.7327 63.7567 30.2011C63.7656 29.965 63.7265 29.7296 63.6418 29.509C63.5572 29.2884 63.4288 29.0873 63.2643 28.9177C62.8643 28.5618 62.3403 28.3775 61.8056 28.4047C61.6932 28.4029 61.5811 28.4148 61.4717 28.4401C61.451 28.4473 61.4335 28.4615 61.4223 28.4803C61.411 28.499 61.4067 28.5211 61.4101 28.5427C61.4101 28.7181 61.4101 29.1639 61.4101 29.5706L61.4064 30.2197Z" fill="#FF0000"/>
<path d="M66.0371 30.1115C66.0371 29.2329 66.6172 28.0988 68.1562 28.0988C69.4358 28.0988 70.2305 28.8449 70.2305 30.0182C70.2305 31.1916 69.4097 32.1224 68.1058 32.1224C66.6322 32.1224 66.0371 31.02 66.0371 30.1115ZM69.5123 30.2085C69.5123 29.0594 68.8501 28.3431 68.0088 28.3431C67.4175 28.3431 66.746 28.6714 66.746 29.9492C66.746 31.0181 67.3354 31.865 68.3222 31.865C68.6804 31.8668 69.5123 31.6915 69.5123 30.2085Z" fill="#FF0000"/>
<path d="M75.1501 30.7122C75.124 30.7122 75.1146 30.7122 75.1035 30.7532L74.8255 31.4863C74.7836 31.5861 74.7578 31.6919 74.749 31.7997C74.749 31.893 74.7957 31.9583 74.9542 31.9583H75.0326C75.0941 31.9583 75.1091 31.9694 75.1091 31.9993C75.1091 32.0291 75.0773 32.0515 75.0214 32.0515C74.8572 32.0515 74.6371 32.0366 74.4767 32.0366C74.4207 32.0366 74.1391 32.0515 73.8723 32.0515C73.8051 32.0515 73.7734 32.0403 73.7734 31.9993C73.7734 31.9583 73.794 31.9583 73.835 31.9583C73.8886 31.9581 73.9422 31.955 73.9954 31.9489C74.2305 31.9172 74.3293 31.7437 74.4319 31.4863L75.719 28.2629C75.7806 28.1137 75.8123 28.0577 75.8627 28.0577C75.913 28.0577 75.941 28.1044 75.9914 28.2219C76.1145 28.5054 76.9353 30.5984 77.2654 31.3781C77.452 31.8407 77.6087 31.9135 77.7169 31.9377C77.7874 31.9522 77.8593 31.9591 77.9314 31.9583C77.9724 31.9583 77.9985 31.9583 77.9985 31.9993C77.9985 32.0403 77.9519 32.0515 77.7616 32.0515C77.5714 32.0515 77.202 32.0515 76.7916 32.0403C76.7002 32.0403 76.6387 32.0403 76.6387 31.9993C76.6387 31.9583 76.6592 31.9583 76.7095 31.9545C76.7211 31.9506 76.7316 31.9442 76.7404 31.9357C76.7493 31.9273 76.7561 31.917 76.7606 31.9057C76.765 31.8943 76.7669 31.8821 76.7662 31.8699C76.7654 31.8577 76.762 31.8459 76.7562 31.8351L76.3458 30.7476C76.3424 30.7367 76.3354 30.7272 76.3259 30.7207C76.3164 30.7143 76.305 30.7112 76.2936 30.7122H75.1501ZM76.1966 30.4548C76.2227 30.4548 76.2283 30.4398 76.2227 30.4249L75.7601 29.1565C75.7601 29.1359 75.7507 29.1098 75.7358 29.1098C75.7209 29.1098 75.7097 29.1359 75.7041 29.1565L75.2322 30.4193C75.2322 30.4398 75.2322 30.4548 75.2527 30.4548H76.1966Z" fill="#FF0000"/>
<path d="M79.3233 29.6601C79.3233 28.8785 79.3233 28.7274 79.3121 28.5707C79.3009 28.414 79.2617 28.3152 79.092 28.2779C79.0254 28.267 78.958 28.262 78.8905 28.2629C78.8345 28.2629 78.8047 28.2629 78.8047 28.2163C78.8047 28.1697 78.8401 28.1715 78.9166 28.1715C79.189 28.1715 79.5117 28.1865 79.6628 28.1865C79.7859 28.1865 80.1086 28.1715 80.2933 28.1715C80.3716 28.1715 80.4071 28.1808 80.4071 28.2163C80.4071 28.2517 80.3753 28.2629 80.325 28.2629C80.2749 28.2635 80.225 28.2685 80.1757 28.2779C80.0377 28.304 79.9892 28.3916 79.9892 28.5707C79.9892 28.7498 79.9799 28.8785 79.9799 29.6601V30.3783C79.9799 31.1244 80.1291 31.4359 80.3791 31.6411C80.56 31.7875 80.7883 31.8625 81.0208 31.8519C81.2843 31.8556 81.5388 31.7558 81.7296 31.574C82.0131 31.2923 82.0281 30.8278 82.0281 30.3018V29.6601C82.0281 28.8785 82.0281 28.7274 82.0169 28.5707C82.0057 28.414 81.9665 28.3152 81.7968 28.2779C81.7351 28.2675 81.6727 28.2625 81.6102 28.2629C81.5543 28.2629 81.5226 28.2629 81.5226 28.2163C81.5226 28.1697 81.558 28.1715 81.6307 28.1715C81.8919 28.1715 82.2165 28.1865 82.2202 28.1865C82.2818 28.1865 82.6063 28.1715 82.8059 28.1715C82.8787 28.1715 82.9141 28.1808 82.9141 28.2163C82.9141 28.2517 82.8824 28.2629 82.8209 28.2629C82.7708 28.2635 82.7208 28.2685 82.6716 28.2779C82.5336 28.304 82.4851 28.3916 82.4851 28.5707C82.4851 28.7498 82.4739 28.8785 82.4739 29.6601V30.2085C82.4739 30.7793 82.4179 31.3837 81.987 31.7531C81.6913 32.0091 81.309 32.1425 80.9182 32.1261C80.5082 32.1543 80.1025 32.0286 79.7803 31.7736C79.5173 31.5367 79.3233 31.1561 79.3233 30.4118V29.6601Z" fill="#FF0000"/>
<path d="M85.627 28.4588L84.8622 28.4793C84.5637 28.4793 84.4406 28.5147 84.3641 28.6285C84.3252 28.6857 84.2956 28.7486 84.2764 28.8151C84.2671 28.8561 84.2522 28.8766 84.2205 28.8766C84.1888 28.8766 84.1738 28.8505 84.1738 28.7945C84.1738 28.7386 84.2727 28.2349 84.282 28.2032C84.2914 28.1715 84.3137 28.1062 84.3436 28.1062C84.4147 28.134 84.4884 28.1547 84.5637 28.1678C84.7129 28.1827 84.9088 28.1939 85.0785 28.1939H87.1099C87.2286 28.1943 87.3471 28.1855 87.4644 28.1678C87.5408 28.1528 87.5837 28.1416 87.6024 28.1416C87.6211 28.1416 87.6453 28.1734 87.6453 28.2498C87.6453 28.358 87.6285 28.7124 87.6285 28.8449C87.6285 28.8971 87.6136 28.927 87.5837 28.927C87.5539 28.927 87.5315 28.9027 87.5259 28.8244V28.7684C87.5166 28.636 87.3786 28.4905 86.9215 28.4811L86.2743 28.4662V30.5704C86.2743 31.0423 86.2742 31.4471 86.3004 31.6691C86.3153 31.8127 86.347 31.9246 86.5 31.9452C86.5871 31.9578 86.675 31.9646 86.763 31.9657C86.8189 31.9657 86.8451 31.9825 86.8451 32.0067C86.8451 32.031 86.8022 32.0589 86.7462 32.0589C86.4086 32.0589 86.084 32.044 85.9403 32.044C85.7967 32.044 85.5001 32.0589 85.2949 32.0589C85.2278 32.0589 85.1905 32.044 85.1905 32.0067C85.1905 31.9694 85.211 31.9657 85.2744 31.9657C85.3372 31.9663 85.3998 31.9594 85.4609 31.9452C85.5635 31.9246 85.5934 31.8127 85.6083 31.6635C85.6344 31.4471 85.6344 31.0423 85.6344 30.5704L85.627 28.4588Z" fill="#FF0000"/>
<path d="M89.5153 30.7122C89.4892 30.7122 89.478 30.7122 89.4687 30.7532L89.1907 31.4863C89.1489 31.5861 89.123 31.6919 89.1143 31.7997C89.1143 31.893 89.1609 31.9583 89.3195 31.9583H89.3959C89.4575 31.9583 89.4743 31.9694 89.4743 31.9993C89.4743 32.0291 89.4426 32.0515 89.3866 32.0515C89.2225 32.0515 89.0005 32.0366 88.8419 32.0366C88.786 32.0366 88.5024 32.0515 88.2357 32.0515C88.1704 32.0515 88.1387 32.0403 88.1387 31.9993C88.1387 31.9583 88.1592 31.9583 88.2002 31.9583C88.2532 31.9581 88.3062 31.955 88.3588 31.9489C88.5957 31.9172 88.6927 31.7437 88.7953 31.4863L90.0843 28.2629C90.1458 28.1137 90.1757 28.0577 90.2279 28.0577C90.2801 28.0577 90.3044 28.1044 90.3566 28.2219C90.4797 28.5054 91.3005 30.5984 91.6288 31.3781C91.8153 31.8407 91.9739 31.9135 92.0802 31.9377C92.1514 31.9521 92.224 31.959 92.2966 31.9583C92.3377 31.9583 92.3638 31.9583 92.3638 31.9993C92.3638 32.0403 92.3171 32.0515 92.1269 32.0515C91.9366 32.0515 91.5672 32.0515 91.1569 32.0403C91.0655 32.0403 91.0039 32.0403 91.0039 31.9993C91.0039 31.9583 91.0244 31.9583 91.0748 31.9545C91.0861 31.9503 91.0965 31.9437 91.1051 31.9353C91.1137 31.9268 91.1205 31.9166 91.1249 31.9053C91.1293 31.894 91.1313 31.8819 91.1307 31.8698C91.1301 31.8578 91.1269 31.8459 91.1214 31.8351L90.711 30.7476C90.7077 30.7367 90.7007 30.7272 90.6912 30.7207C90.6817 30.7143 90.6702 30.7112 90.6588 30.7122H89.5153ZM90.5618 30.4548C90.5879 30.4548 90.5917 30.4398 90.5879 30.4249L90.1253 29.1565C90.1253 29.1359 90.1141 29.1098 90.0992 29.1098C90.0843 29.1098 90.0749 29.1359 90.0693 29.1565L89.5974 30.4193C89.5974 30.4398 89.5974 30.4548 89.6179 30.4548H90.5618Z" fill="#FF0000"/>
<path d="M96.4963 29.66C96.4963 28.8784 96.4963 28.7273 96.4851 28.5707C96.4739 28.414 96.4235 28.3095 96.3116 28.2834C96.2505 28.2689 96.1878 28.262 96.125 28.2629C96.0747 28.2629 96.043 28.2629 96.043 28.2125C96.043 28.1621 96.084 28.1715 96.1661 28.1715C96.3619 28.1715 96.6847 28.1864 96.8339 28.1864C96.9831 28.1864 97.2648 28.1715 97.4607 28.1715C97.5278 28.1715 97.5689 28.1808 97.5689 28.2125C97.5689 28.2442 97.5371 28.2629 97.4868 28.2629C97.4348 28.2636 97.3831 28.2686 97.3319 28.2778C97.1939 28.3039 97.1454 28.3916 97.1454 28.5707C97.1454 28.7497 97.1454 28.8784 97.1454 29.66V30.5629C97.1454 31.061 97.1454 31.4657 97.1659 31.6821C97.1809 31.8202 97.2163 31.9116 97.3711 31.9321C97.4576 31.9447 97.5449 31.9515 97.6323 31.9526C97.6901 31.9526 97.7144 31.9694 97.7144 31.9936C97.7144 32.0179 97.6733 32.0459 97.6174 32.0459C97.2779 32.0459 96.9551 32.0309 96.8171 32.0309C96.6791 32.0309 96.375 32.0459 96.1698 32.0459C96.1027 32.0459 96.0672 32.0309 96.0672 31.9936C96.0672 31.9563 96.0877 31.9526 96.1493 31.9526C96.2121 31.9532 96.2747 31.9463 96.3358 31.9321C96.4384 31.9116 96.4701 31.8258 96.4851 31.6765C96.5112 31.4601 96.5112 31.0553 96.5112 30.5573L96.4963 29.66Z" fill="#FF0000"/>
<path d="M101.403 31.753C101.927 31.753 102.127 31.6262 102.209 31.4714C102.252 31.3943 102.283 31.3113 102.302 31.2251C102.314 31.1729 102.323 31.143 102.353 31.143C102.383 31.143 102.405 31.1785 102.405 31.3016C102.391 31.5133 102.357 31.7232 102.302 31.9284C102.276 32.0198 102.241 32.0608 102.148 32.0608C101.291 32.0608 100.43 32.0365 99.3924 32.0365C99.3364 32.0365 99.3047 32.0198 99.3047 31.9843C99.3047 31.9489 99.3196 31.9228 99.3812 31.8314C100.105 30.7009 100.873 29.5407 101.552 28.4588H100.547C100.293 28.4403 100.039 28.4773 99.8009 28.5669C99.7283 28.6092 99.6657 28.6668 99.6177 28.7358C99.5697 28.8047 99.5374 28.8834 99.5229 28.9661C99.5136 29.0389 99.4931 29.0594 99.4614 29.0594C99.4297 29.0594 99.4203 29.0333 99.4203 28.9717C99.4203 28.8542 99.4968 28.386 99.5229 28.2256C99.5341 28.1528 99.5546 28.1267 99.5845 28.1267C99.6519 28.1441 99.7205 28.1566 99.7897 28.164C100.278 28.1845 100.525 28.1789 100.734 28.1789H102.3C102.351 28.1789 102.388 28.1939 102.388 28.22C102.383 28.2555 102.368 28.2889 102.345 28.317C101.638 29.4679 100.853 30.6431 100.135 31.7456L101.403 31.753Z" fill="#FF0000"/>
<path d="M106.8 31.9899C106.718 31.9544 106.703 31.9283 106.703 31.8145C106.703 31.5329 106.724 31.2251 106.729 31.143C106.735 31.0609 106.75 31.0087 106.791 31.0087C106.832 31.0087 106.841 31.0553 106.841 31.0964C106.846 31.1851 106.861 31.2728 106.888 31.3575C106.931 31.5157 107.027 31.654 107.161 31.7486C107.295 31.8432 107.457 31.8883 107.621 31.8761C108.084 31.8761 108.309 31.5627 108.309 31.2922C108.309 31.0217 108.233 30.8035 107.806 30.4696L107.571 30.2831C107.011 29.8428 106.811 29.4828 106.811 29.0668C106.811 28.5072 107.283 28.0968 107.996 28.0968C108.226 28.0943 108.456 28.1239 108.679 28.1845C108.725 28.1845 108.751 28.2106 108.751 28.2461C108.751 28.3132 108.731 28.4606 108.731 28.8617C108.731 28.9754 108.716 29.0165 108.673 29.0165C108.63 29.0165 108.623 28.9848 108.623 28.9232C108.613 28.7992 108.566 28.681 108.488 28.5837C108.423 28.4992 108.337 28.4321 108.24 28.3885C108.142 28.3449 108.035 28.3261 107.929 28.3337C107.556 28.3337 107.317 28.5539 107.317 28.8617C107.317 29.0986 107.434 29.2776 107.862 29.6078L108.005 29.716C108.626 30.1842 108.846 30.5368 108.846 31.0218C108.849 31.1997 108.807 31.3753 108.722 31.5318C108.637 31.6884 108.514 31.8204 108.363 31.9153C108.118 32.0625 107.834 32.1351 107.548 32.1242C107.292 32.1336 107.037 32.0878 106.8 31.9899Z" fill="#FF0000"/>
<path d="M111.384 31.3538C111.393 31.753 111.461 31.8873 111.571 31.9134C111.657 31.9404 111.747 31.9524 111.837 31.9489C111.893 31.9489 111.925 31.9601 111.925 31.9899C111.925 32.0197 111.878 32.0421 111.808 32.0421C111.474 32.0421 111.268 32.0272 111.17 32.0272C111.125 32.0272 110.882 32.0421 110.61 32.0421C110.545 32.0421 110.498 32.0421 110.498 31.9899C110.498 31.9377 110.528 31.9489 110.58 31.9489C110.658 31.9506 110.736 31.9424 110.811 31.9246C110.944 31.8836 110.964 31.7381 110.97 31.2867L111.017 28.248C111.017 28.1454 111.032 28.0745 111.082 28.0745C111.132 28.0745 111.185 28.1416 111.268 28.233C111.352 28.3244 112.11 29.1359 112.86 29.8802C113.208 30.2309 113.902 30.9696 113.99 31.0516H114.014L113.964 28.746C113.964 28.4345 113.912 28.3356 113.789 28.2853C113.7 28.2593 113.608 28.2486 113.516 28.2536C113.455 28.2536 113.434 28.2386 113.434 28.2069C113.434 28.1752 113.492 28.1622 113.568 28.1622C113.835 28.1622 114.081 28.1771 114.19 28.1771C114.246 28.1771 114.441 28.1622 114.693 28.1622C114.759 28.1622 114.811 28.1622 114.811 28.2069C114.811 28.2517 114.779 28.2536 114.718 28.2536C114.666 28.2516 114.615 28.2566 114.565 28.2685C114.421 28.3114 114.378 28.4177 114.378 28.705L114.322 31.9451C114.322 32.0571 114.302 32.1037 114.255 32.1037C114.208 32.1037 114.137 32.0477 114.08 31.9899C113.757 31.6821 113.1 31.0106 112.567 30.4808C112.033 29.951 111.436 29.2851 111.345 29.1881H111.328L111.384 31.3538Z" fill="#FF0000"/>
<path d="M116.375 30.1115C116.375 29.2329 116.955 28.0988 118.494 28.0988C119.772 28.0988 120.568 28.8449 120.568 30.0182C120.568 31.1916 119.748 32.1224 118.444 32.1224C116.968 32.1224 116.375 31.02 116.375 30.1115ZM119.85 30.2085C119.85 29.0594 119.188 28.3431 118.345 28.3431C117.755 28.3431 117.084 28.6714 117.084 29.9492C117.084 31.0181 117.673 31.865 118.658 31.865C119.016 31.8668 119.848 31.6915 119.848 30.2085H119.85Z" fill="#FF0000"/>
<path d="M122.247 28.6733C122.129 28.3916 122.042 28.3357 121.857 28.2834C121.791 28.2681 121.724 28.2612 121.657 28.2629C121.611 28.2629 121.596 28.248 121.596 28.2163C121.596 28.1846 121.652 28.1715 121.728 28.1715C122 28.1715 122.288 28.1864 122.474 28.1864C122.603 28.1864 122.847 28.1715 123.107 28.1715C123.168 28.1715 123.224 28.1808 123.224 28.2163C123.224 28.2517 123.194 28.2629 123.148 28.2629C123.079 28.2561 123.01 28.2684 122.948 28.2984C122.931 28.3103 122.917 28.3266 122.908 28.3455C122.898 28.3645 122.894 28.3855 122.896 28.4065C122.917 28.543 122.957 28.676 123.013 28.802L123.898 31.1319H123.918C124.138 30.5723 124.806 28.9158 124.929 28.5763C124.954 28.5169 124.97 28.454 124.976 28.3898C124.977 28.3685 124.971 28.3474 124.959 28.3299C124.947 28.3123 124.929 28.2993 124.909 28.2928C124.842 28.2737 124.773 28.2648 124.703 28.2666C124.657 28.2666 124.616 28.2667 124.616 28.2256C124.616 28.1846 124.662 28.1752 124.759 28.1752C125.017 28.1752 125.231 28.1902 125.298 28.1902C125.366 28.1902 125.627 28.1752 125.782 28.1752C125.847 28.1752 125.888 28.1846 125.888 28.22C125.888 28.2555 125.858 28.2666 125.806 28.2666C125.718 28.262 125.63 28.2834 125.554 28.3282C125.489 28.3748 125.41 28.4625 125.272 28.7908C125.073 29.2721 124.933 29.55 124.657 30.1824C124.328 30.9286 124.088 31.4882 123.974 31.7475C123.84 32.0441 123.81 32.1205 123.737 32.1205C123.664 32.1205 123.64 32.0496 123.551 31.809L122.247 28.6733Z" fill="#FF0000"/>
<path d="M127.383 30.7122C127.356 30.7122 127.347 30.7122 127.336 30.7532L127.06 31.4863C127.017 31.5858 126.991 31.6917 126.983 31.7997C126.983 31.893 127.028 31.9583 127.189 31.9583H127.265C127.327 31.9583 127.342 31.9694 127.342 31.9993C127.342 32.0291 127.312 32.0515 127.254 32.0515C127.09 32.0515 126.87 32.0366 126.711 32.0366C126.655 32.0366 126.372 32.0515 126.105 32.0515C126.038 32.0515 126.008 32.0403 126.008 31.9993C126.008 31.9583 126.028 31.9583 126.069 31.9583C126.122 31.9581 126.175 31.955 126.228 31.9489C126.465 31.9172 126.562 31.7437 126.664 31.4863L127.953 28.2629C128.015 28.1137 128.045 28.0577 128.097 28.0577C128.149 28.0577 128.174 28.1044 128.224 28.2219C128.347 28.5054 129.17 30.5984 129.498 31.3781C129.684 31.8407 129.841 31.9135 129.949 31.9377C130.021 31.9522 130.093 31.9591 130.166 31.9583C130.207 31.9583 130.231 31.9583 130.231 31.9993C130.231 32.0403 130.186 32.0515 129.996 32.0515C129.806 32.0515 129.436 32.0515 129.026 32.0403C128.933 32.0403 128.871 32.0403 128.871 31.9993C128.871 31.9583 128.892 31.9583 128.944 31.9545C128.955 31.9501 128.965 31.9434 128.974 31.9349C128.982 31.9263 128.989 31.9161 128.993 31.9048C128.997 31.8935 128.999 31.8815 128.998 31.8695C128.997 31.8575 128.994 31.8458 128.989 31.8351L128.578 30.7476C128.576 30.7366 128.569 30.7269 128.56 30.7204C128.551 30.7139 128.539 30.711 128.528 30.7122H127.383ZM128.431 30.4548C128.455 30.4548 128.461 30.4398 128.455 30.4249L127.994 29.1565C127.994 29.1359 127.983 29.1098 127.968 29.1098C127.953 29.1098 127.942 29.1359 127.937 29.1565L127.465 30.4193C127.465 30.4398 127.465 30.4548 127.485 30.4548H128.431Z" fill="#FF0000"/>
</svg>
