<svg width="76" height="28" viewBox="0 0 76 28" fill="none" xmlns="http://www.w3.org/2000/svg">
<g clip-path="url(#clip0_310_25800)">
<path d="M23.8966 6.00125C23.7512 5.97687 23.5806 5.93894 23.4081 5.91998C23.1661 5.89379 22.9223 5.88386 22.6803 5.86128C22.4997 5.84503 22.4419 5.90914 22.4997 6.07258C22.571 6.28659 22.6451 6.50061 22.7218 6.71281C22.7585 6.79048 22.8148 6.85728 22.885 6.90667C22.9553 6.95605 23.0372 6.98634 23.1228 6.99454C23.4839 7.00086 23.4704 6.99453 23.3774 7.35031C23.2636 7.78104 23.1489 8.21358 23.1751 8.66687C23.1796 8.73641 23.1751 8.80683 23.1751 8.87456C21.9741 8.97388 20.7867 9.07682 19.574 9.27728C20.2061 10.0611 20.7741 10.8413 21.2319 11.6955L21.1976 11.7352C21.1524 11.7018 21.091 11.6783 21.0648 11.6341C20.7138 11.0613 20.2796 10.544 19.7763 10.099C19.3526 9.7012 18.8798 9.3592 18.3694 9.08134C18.0621 8.90922 17.7455 8.75397 17.4213 8.6163C17.0601 8.47544 16.6844 8.37701 16.3115 8.27046C16.1065 8.21087 15.897 8.16571 15.6875 8.12597C15.4968 8.08531 15.3034 8.05846 15.1087 8.04562C14.6292 8.02666 14.1489 8.00949 13.6694 8.01762C13.1253 8.03176 12.5848 8.11057 12.0593 8.2524C11.5848 8.3733 11.122 8.5368 10.6769 8.74092C10.1473 8.98128 9.6486 9.28445 9.19145 9.6439C8.86637 9.90396 8.55936 10.1902 8.25234 10.4665C8.20139 10.5242 8.14202 10.5738 8.07626 10.6137C8.07997 10.5735 8.09098 10.5344 8.10877 10.4981C8.33993 10.1965 8.56929 9.89222 8.81129 9.59514C8.93952 9.43982 8.93319 9.3414 8.73905 9.29354C8.54359 9.24452 8.34355 9.21607 8.14218 9.20867C7.76021 9.19512 7.37734 9.20867 6.99538 9.20867C6.56375 9.20235 6.13303 9.1897 5.7014 9.17886C5.41967 9.17164 5.13794 9.1599 4.8553 9.15267C4.39117 9.14184 3.92522 9.14816 3.46109 9.12017C3.05203 9.09488 2.64839 9.02987 2.23844 8.98381C2.16307 8.97641 2.08731 8.99339 2.0223 9.03224C1.95728 9.07108 1.90644 9.12975 1.87724 9.19963C1.80477 9.42286 1.78986 9.66079 1.8339 9.89132C1.84288 9.93511 1.84288 9.98027 1.8339 10.0241C1.59732 9.71975 1.68671 9.32063 1.55036 8.98833L1.50521 8.99376C1.48723 9.14929 1.47999 9.30587 1.48354 9.4624C1.50973 9.74775 1.22529 10.0214 0.935427 10.0042C0.676269 9.99065 0.416208 10.0042 0.156148 10.0042C0.000833751 10.0042 -0.0298676 9.96807 0.0378565 9.83262C0.199491 9.51568 0.37016 9.20054 0.538115 8.88901C0.572429 8.82489 0.615769 8.78335 0.551657 8.69125C0.500187 8.6172 0.522761 8.48898 0.517343 8.38513C0.508313 8.19912 0.502895 8.19461 0.308753 8.19009C0.244641 8.19009 0.155243 8.2235 0.148922 8.10792C0.143504 8.00679 0.193172 7.96344 0.293404 7.96435C0.60945 7.96435 0.925496 7.95893 1.24245 7.96435C1.36796 7.96435 1.40498 7.91197 1.42304 7.80542C1.48715 7.43068 1.54675 7.05594 1.6217 6.68391C1.68852 6.35431 1.77069 6.02834 1.85015 5.70145C1.86973 5.64794 1.89517 5.59677 1.92601 5.54885C1.75625 5.48835 1.59732 5.53711 1.44652 5.58587C1.29635 5.64316 1.14953 5.70889 1.00676 5.78272C0.97335 5.61025 1.08984 5.49196 1.15395 5.36374C1.26502 5.13889 1.49167 5.07207 1.7129 5.0495C2.08041 5.01157 2.45154 4.99893 2.82087 4.98899C3.42858 4.97274 4.03539 4.97274 4.6431 4.95739C5.01784 4.94746 5.39167 4.91947 5.76641 4.90231C6.03731 4.89057 6.30821 4.88516 6.5791 4.87342C7.00531 4.85536 7.43153 4.83278 7.85774 4.81472C8.09703 4.80389 8.33722 4.80208 8.58013 4.78763C8.99099 4.76325 9.40094 4.73164 9.8118 4.70545C10.0249 4.69191 10.2389 4.6874 10.452 4.67476C10.5522 4.67071 10.6506 4.64741 10.7419 4.60613C10.7122 4.59878 10.682 4.59395 10.6516 4.59169C10.1324 4.59169 9.61315 4.58717 9.09393 4.59169C8.53408 4.59711 7.97422 4.61155 7.41346 4.61787C7.02969 4.61787 6.64502 4.61787 6.26125 4.62329C5.84858 4.63322 5.43683 4.6594 5.02416 4.67295C4.96733 4.66681 4.91167 4.65252 4.85891 4.63051L4.86523 4.58988C4.96095 4.5664 5.05938 4.54834 5.15329 4.51764C5.59575 4.37316 6.0337 4.21243 6.48068 4.08059C6.79853 3.9903 7.12722 3.92979 7.45049 3.85304C7.71597 3.78983 7.98054 3.71939 8.24693 3.65799C8.67043 3.55957 9.09573 3.46927 9.51833 3.37085C9.87952 3.28687 10.2407 3.19025 10.5956 3.10807C11.1166 2.98617 11.6394 2.86969 12.1614 2.74688C12.5307 2.65658 12.8982 2.56628 13.2675 2.48411C13.8039 2.3613 14.3403 2.24391 14.8767 2.12291C15.1701 2.05699 15.4627 1.98927 15.7562 1.92155C16.1571 1.83125 16.5571 1.73192 16.9599 1.65065C17.477 1.54109 17.9953 1.43814 18.5148 1.34182C19.0024 1.25153 19.4918 1.16756 19.9804 1.07997C20.5005 0.989668 21.0188 0.884913 21.5398 0.800935C22.0608 0.716957 22.5981 0.64653 23.1273 0.569776C23.5128 0.513791 23.8984 0.451488 24.2858 0.403629C24.5955 0.365704 24.9071 0.344032 25.2177 0.31333C25.5428 0.283532 25.8678 0.25283 26.1929 0.223032C26.5342 0.194136 26.8747 0.161626 27.216 0.14176C27.653 0.116477 28.0901 0.103833 28.5271 0.083064C28.873 0.0659072 29.2188 0.0343048 29.5647 0.0288869C30.5778 0.0135361 31.591 -0.0117484 32.6041 0.00540834C33.2859 0.0162442 33.9685 0.080359 34.6485 0.143568C35.1157 0.185789 35.5805 0.252092 36.0409 0.342221C36.5339 0.439744 37.0188 0.578804 37.5064 0.703416L37.5236 0.758497C37.4577 0.796423 37.3945 0.84067 37.3259 0.872275C36.9836 1.02578 36.6396 1.17568 36.2973 1.32377L36.0544 1.43033L36.71 1.73192C37.3066 2.00763 37.9029 2.28394 38.4988 2.56086C39.0858 2.83175 39.6727 3.10265 40.256 3.3889C40.9432 3.72572 41.625 4.07337 42.3076 4.42012C42.7655 4.65219 43.2269 4.87793 43.6766 5.12625C44.5606 5.61386 45.4302 6.13037 46.3214 6.60354C46.7314 6.82116 46.9797 7.16971 47.238 7.52098C47.616 8.01983 47.91 8.57709 48.1084 9.17074C48.199 9.49556 48.2705 9.82541 48.3224 10.1586C48.327 10.1821 48.2547 10.2489 48.2204 10.2489C48.0208 10.2426 47.8222 10.2218 47.6235 10.2065C47.4601 10.1938 47.2976 10.183 47.135 10.1676C46.7684 10.1324 46.4027 10.0936 46.037 10.0575C45.8194 10.0367 45.6008 10.0177 45.3823 9.99788C44.9642 9.96086 44.547 9.92021 44.129 9.8868C43.8256 9.86242 43.5222 9.85159 43.2188 9.82721C42.8187 9.7938 42.4196 9.75227 42.0205 9.71615C41.876 9.7035 41.7306 9.69718 41.5861 9.68634L40.1233 9.57347C39.9644 9.56173 39.8055 9.55541 39.6465 9.54458L38.1223 9.43712C37.8144 9.41544 37.5055 9.39739 37.1976 9.37391C36.8491 9.34863 36.4996 9.31612 36.1502 9.29174C35.9307 9.27639 35.7104 9.27097 35.4901 9.26194C35.0449 9.24207 34.5997 9.22763 34.1555 9.20325C33.7311 9.18067 33.3067 9.14545 32.8822 9.12017C32.5129 9.09849 32.1427 9.08314 31.7734 9.06237C31.2731 9.03528 30.7729 9.00369 30.2726 8.97931C29.6261 8.9477 28.9804 8.91699 28.3339 8.89442C27.6521 8.87004 26.9704 8.85378 26.2886 8.83753C25.7902 8.82489 25.2953 8.80955 24.7933 8.81225C24.4375 8.81225 24.0817 8.84385 23.7268 8.86372C23.6131 8.87004 23.4993 8.88359 23.3855 8.89262C23.2952 8.89894 23.2519 8.86102 23.2636 8.76801C23.3115 8.39417 23.3259 8.01311 23.4144 7.64921C23.5417 7.1038 23.7268 6.56201 23.8966 6.00125ZM13.9944 4.75603V4.78312C14.0658 4.78312 14.1371 4.79576 14.2094 4.79486C14.3719 4.79486 14.5353 4.7786 14.697 4.78763C15.0889 4.8093 15.4799 4.84271 15.8709 4.8689C16.0515 4.88154 16.232 4.88425 16.4181 4.8996C16.8371 4.93391 17.2551 4.97455 17.6732 5.01067C17.9152 5.03234 18.159 5.04859 18.401 5.07027C18.7956 5.10548 19.1902 5.14431 19.5839 5.18043C19.807 5.2012 20.03 5.21836 20.2531 5.24003C20.6142 5.27524 20.9754 5.31407 21.3366 5.35109C21.5416 5.37186 21.7457 5.39083 21.9498 5.41341C22.2649 5.44772 22.5819 5.48654 22.8952 5.51995C23.1092 5.54343 23.3232 5.55698 23.5363 5.58046C23.8497 5.61477 24.163 5.6563 24.4772 5.68971C24.7093 5.715 24.9423 5.72765 25.1743 5.75383C25.5355 5.79537 25.9031 5.84413 26.2679 5.88838C26.5595 5.92179 26.853 5.93985 27.1438 5.97868C27.6738 6.04821 28.2012 6.13037 28.7303 6.19991C29.2098 6.26311 29.6902 6.31188 30.1697 6.37328C30.6492 6.43469 31.1106 6.5015 31.5792 6.57103C31.9233 6.6216 32.2664 6.6821 32.6095 6.73899C32.7739 6.76608 32.9373 6.79859 33.1017 6.82387C33.5143 6.88799 33.927 6.94758 34.3397 7.01259C34.7523 7.07761 35.1722 7.15166 35.5885 7.22119C35.8124 7.25821 36.04 7.29162 36.2612 7.32954C36.5457 7.3774 36.8283 7.42887 37.1127 7.47583C37.5155 7.54175 37.9182 7.60496 38.3209 7.66907C38.5359 7.70338 38.7508 7.73408 38.9657 7.7693C39.0073 7.7784 39.0483 7.79017 39.0885 7.80452C39.0727 7.84322 39.054 7.88066 39.0325 7.91649C38.935 8.06187 38.8239 8.19912 38.7408 8.35172C38.7269 8.374 38.7185 8.39934 38.7165 8.42555C38.7145 8.45177 38.7189 8.47808 38.7293 8.50223C38.7397 8.52638 38.7558 8.54765 38.7762 8.56422C38.7966 8.58079 38.8207 8.59215 38.8465 8.59734C38.9878 8.65334 39.1379 8.68391 39.2898 8.68764C39.5494 8.66998 39.8063 8.62519 40.0565 8.554C40.4285 8.44474 40.7906 8.30296 41.1563 8.17203C41.3089 8.11695 41.4471 8.03206 41.6286 8.06999C41.8189 8.11696 42.0155 8.13372 42.211 8.11966C42.4687 8.09078 42.7114 7.98363 42.9063 7.81264C42.6806 7.45145 42.4602 7.09929 42.2363 6.74802C42.099 6.53311 41.9184 6.38682 41.6466 6.39946C41.4661 6.40488 41.2782 6.39946 41.094 6.39946C41.0552 6.39946 40.9965 6.39947 40.9793 6.36967C40.7987 6.11322 40.6263 5.85135 40.4421 5.57955H39.2682C39.0605 5.57955 39.0605 5.57955 39.0605 5.36374V5.1091C39.0595 5.03734 39.0728 4.96611 39.0996 4.89954C39.1264 4.83297 39.1662 4.77239 39.2166 4.72132C39.267 4.67024 39.3271 4.62968 39.3933 4.60201C39.4595 4.57433 39.5305 4.56007 39.6023 4.56008C39.8199 4.56008 40.0384 4.54563 40.2533 4.56008C40.4855 4.58155 40.7162 4.61683 40.9441 4.66573C41.2972 4.73797 41.5139 4.99532 41.6963 5.27525C42.006 5.74931 42.2986 6.23512 42.5939 6.72003C42.6096 6.75387 42.6354 6.78202 42.6677 6.80061C42.7 6.81921 42.7373 6.82733 42.7745 6.82387C43.0716 6.82387 43.3686 6.82387 43.6666 6.82387C43.7064 6.82387 43.7452 6.81574 43.8156 6.80852C43.1438 6.04008 42.4295 5.36373 41.7099 4.68378C42.3212 5.33755 42.9677 5.9579 43.5438 6.67036C43.4787 6.69489 43.4075 6.69778 43.3406 6.67858C43.2737 6.65939 43.2149 6.61914 43.1727 6.56381C43.0246 6.38954 42.8657 6.22429 42.7031 6.06355C42.211 5.57594 41.7207 5.08652 41.2186 4.61065C41.0139 4.40101 40.7851 4.21641 40.5369 4.06073C39.8939 3.69141 39.2357 3.34737 38.5756 3.00784C37.9796 2.69992 37.38 2.39743 36.7696 2.1184C36.3967 1.94368 36.0105 1.79874 35.6147 1.68496C35.1855 1.56976 34.7493 1.48199 34.309 1.42219C33.8355 1.34649 33.3578 1.30035 32.8786 1.28404C31.8077 1.26418 30.7358 1.27772 29.664 1.27772C29.6261 1.27772 29.5881 1.27772 29.5511 1.27772C29.1168 1.30571 28.6834 1.33732 28.249 1.36079C27.7921 1.38518 27.3352 1.3951 26.8783 1.42129C26.3365 1.45289 25.7875 1.49354 25.243 1.53236C25.019 1.54862 24.796 1.56486 24.5739 1.59195C24.0799 1.65336 23.5878 1.72469 23.0939 1.78519C22.7327 1.82944 22.3606 1.85653 21.9958 1.90259C21.5308 1.96128 21.0675 2.03262 20.6034 2.09764C19.9867 2.18793 19.3681 2.25837 18.7532 2.35499C18.1672 2.44528 17.5793 2.55454 17.0014 2.66922C16.7725 2.7221 16.5467 2.78752 16.3251 2.86518C16.2022 2.904 16.1914 2.9636 16.2745 3.05661C16.3576 3.14962 16.4244 3.23721 16.5084 3.31667C16.7197 3.51623 16.9274 3.7203 17.1531 3.9018C17.3978 4.09775 17.6416 4.30995 17.9658 4.37135C18.1798 4.41289 18.4001 4.42644 18.6177 4.45082C18.9546 4.48874 19.2914 4.52667 19.6291 4.56188C19.853 4.58446 20.0806 4.59981 20.3 4.62239C20.644 4.6567 20.9863 4.69643 21.3294 4.73165C21.5434 4.75422 21.7574 4.76958 21.9705 4.79305C22.2947 4.82737 22.618 4.86619 22.9412 4.90231C23.2004 4.9303 23.4587 4.9601 23.7178 4.98268C23.791 4.989 23.8795 5.01699 23.9562 4.91405C23.735 4.8987 23.5444 4.89058 23.3539 4.87161C22.9331 4.82827 22.5132 4.78131 22.0897 4.73255C21.8766 4.70907 21.6626 4.69101 21.4495 4.66663C21.0703 4.62419 20.691 4.57634 20.3108 4.5348C20.0788 4.51042 19.8458 4.49868 19.6137 4.4752C19.183 4.43095 18.7532 4.3849 18.3225 4.33523C18.0416 4.30363 17.7563 4.28286 17.5197 4.09955C17.3915 4.00022 17.2596 3.90451 17.1396 3.79525C16.9021 3.57672 16.6655 3.3564 16.4406 3.12433C16.3305 3.00965 16.3503 2.97443 16.4948 2.904C16.5184 2.88897 16.5435 2.87655 16.5698 2.86697C17.0294 2.76132 17.4863 2.63852 17.9504 2.55635C18.4922 2.46063 19.044 2.40013 19.5903 2.32428C20.0652 2.25836 20.5384 2.18793 21.0134 2.12833C21.3746 2.08228 21.7457 2.05248 22.1114 2.01185C22.5972 1.95767 23.0821 1.89988 23.567 1.84299C23.7937 1.8159 24.0185 1.78339 24.2461 1.75991C24.4086 1.74275 24.573 1.73554 24.7364 1.72289L24.7499 1.77888C24.7156 1.79965 24.6831 1.83576 24.647 1.84028C24.3978 1.87369 24.1476 1.90078 23.8984 1.93057C23.6898 1.95405 23.4803 1.97121 23.2726 1.99649C22.8482 2.04796 22.4247 2.10485 22.0003 2.15723C21.7132 2.19334 21.4251 2.22405 21.1389 2.26017C20.8246 2.2999 20.5122 2.34324 20.198 2.38388C19.9397 2.41729 19.6806 2.44618 19.4232 2.48411C19.1659 2.52203 18.9103 2.57441 18.653 2.61053C18.2231 2.67825 17.7906 2.73604 17.3617 2.81189C17.0962 2.85975 16.8343 2.93379 16.5409 3.00332C16.568 3.04663 16.5982 3.08797 16.6312 3.12703C16.735 3.23359 16.8352 3.34556 16.9481 3.44218C17.1567 3.62277 17.3662 3.80338 17.5874 3.96591C17.7477 4.10226 17.9513 4.17715 18.1617 4.17721C18.4366 4.18482 18.7106 4.21168 18.9816 4.25758C19.3889 4.30273 19.7943 4.35329 20.2043 4.39393C20.5474 4.42824 20.8924 4.44901 21.2364 4.48423C21.5606 4.51583 21.8839 4.55646 22.208 4.59439C22.4157 4.61877 22.6225 4.64316 22.8293 4.67115C23.1246 4.70998 23.4189 4.76145 23.7142 4.78944C23.9093 4.8075 24.0023 4.84723 24.0411 5.06755C24.0573 5.15785 23.9707 5.27614 23.9165 5.37276C23.9011 5.39985 23.8334 5.40437 23.7901 5.40617C23.4848 5.4143 23.1805 5.42153 22.8762 5.42515C22.7758 5.43091 22.6751 5.42668 22.5755 5.4125C22.2532 5.3529 21.9335 5.27164 21.6093 5.22107C21.324 5.17592 21.0341 5.16418 20.747 5.13077C20.3957 5.08833 20.0454 5.03144 19.6932 4.99351C19.341 4.95559 18.9862 4.93211 18.6322 4.90321C18.1653 4.87161 17.6985 4.84 17.2317 4.81923C16.8461 4.80117 16.4605 4.80027 16.0758 4.78853C15.9025 4.78312 15.73 4.76325 15.5566 4.76234C15.0284 4.75602 14.5128 4.75603 13.9944 4.75603ZM40.7879 5.59942C40.8275 5.63215 40.8691 5.66231 40.9125 5.68971C41.2665 5.89018 41.6211 6.08883 41.9762 6.28568C41.9952 6.29652 42.025 6.28568 42.0494 6.28568C42.0449 6.2613 42.0494 6.22971 42.0358 6.21345C41.9455 6.1078 41.8498 6.00396 41.755 5.90102C41.6389 5.76434 41.4864 5.66349 41.3151 5.61025C41.1439 5.55701 40.961 5.55356 40.7879 5.60032V5.59942Z" fill="url(#paint0_linear_310_25800)"/>
<path d="M53.7532 10.7817H53.2331L53.2241 10.7374C53.3947 10.6228 53.5663 10.509 53.7361 10.3925C54.1875 10.0861 54.639 9.77816 55.0905 9.46873C55.1185 9.44977 55.123 9.3974 55.1384 9.36038C55.1971 9.35225 55.2549 9.34051 55.3136 9.3369C55.4102 9.33148 55.5213 9.29898 55.6007 9.3369C55.7912 9.43167 55.9755 9.53844 56.1524 9.65656C56.2283 9.70352 56.2364 9.76944 56.1524 9.82452C55.8987 9.99609 55.645 10.1677 55.3885 10.3356C55.179 10.472 54.965 10.6011 54.7564 10.7338C54.8693 10.7681 54.9984 10.7338 55.0752 10.7772C55.1799 10.8404 55.2305 10.7925 55.2955 10.7465C55.7368 10.4388 56.1771 10.1297 56.6166 9.81909C56.7385 9.7288 56.855 9.6385 56.9995 9.52834C56.9399 9.52201 56.9182 9.5184 56.8956 9.5175L56.7746 9.51118C56.7914 9.4697 56.8149 9.43126 56.8441 9.39741C57.004 9.26376 57.1683 9.13554 57.3661 8.97751C57.2252 8.97751 57.1277 8.98293 57.0311 8.97751C56.6211 8.95133 56.2111 8.92243 55.8003 8.89444L54.9361 8.83664C54.9217 8.83664 54.9081 8.82942 54.8946 8.82762C54.6399 8.80323 54.3862 8.77254 54.1307 8.75719C53.8128 8.73913 53.4986 8.74184 53.1762 8.72197C52.6868 8.69127 52.1992 8.64702 51.7106 8.6118C51.5093 8.59735 51.3079 8.59374 51.1065 8.5811C51.0163 8.57568 50.9314 8.56034 50.8438 8.5495L50.8348 8.60187C50.8824 8.61708 50.9309 8.62915 50.9801 8.63799C51.233 8.67501 51.4858 8.70391 51.7377 8.74364C52.0312 8.7897 52.322 8.8493 52.6145 8.89264C52.9757 8.94592 53.3433 8.98294 53.7063 9.03892C54.1577 9.10755 54.6011 9.18882 55.049 9.26105C55.1131 9.27189 55.1763 9.27008 55.1393 9.36309C54.5388 9.76041 53.9311 10.1451 53.3433 10.5596C53.1247 10.7131 52.9152 10.7185 52.6732 10.6869C52.34 10.6426 52.0041 10.6255 51.6691 10.5966C51.3865 10.5695 51.1038 10.5343 50.8212 10.5063C50.6108 10.4864 50.4004 10.4774 50.1891 10.4548C49.7918 10.4115 49.3945 10.3645 48.9972 10.3166C48.8987 10.3067 48.7985 10.3166 48.7001 10.3166C48.4897 10.3166 48.4752 10.2805 48.4337 10.0846C48.3663 9.72058 48.2743 9.36157 48.1583 9.01002C48.0264 8.64014 47.862 8.28267 47.6671 7.94179C47.4747 7.60859 47.2246 7.3097 47.0007 6.99546C46.9718 6.95392 46.9483 6.90516 46.9031 6.83292C47.2093 6.83292 47.4729 6.84827 47.7339 6.83292C48.0951 6.80583 48.4563 6.75165 48.8175 6.71282C48.9511 6.69838 49.0884 6.69385 49.269 6.68211C49.1577 6.58072 49.0407 6.48576 48.9186 6.39768C48.3226 6.02204 47.7312 5.63826 47.1208 5.28519C46.2584 4.78675 45.3843 4.30726 44.5084 3.83229C43.9314 3.51895 43.3418 3.22729 42.7566 2.9293C42.4622 2.77941 42.1688 2.6268 41.8681 2.49045C41.543 2.34326 41.2089 2.21956 40.882 2.07417C40.6427 1.97123 40.407 1.85835 40.1696 1.7518C39.9095 1.63532 39.6476 1.52154 39.374 1.37706C39.4183 1.36713 39.4706 1.33734 39.505 1.35178C39.7172 1.44208 39.9248 1.5396 40.137 1.63171C40.3339 1.71659 40.5344 1.79515 40.7312 1.88093C41.124 2.04979 41.5177 2.21684 41.9051 2.39473C42.4601 2.64757 43.0131 2.90492 43.5639 3.16679C44.0307 3.38892 44.4931 3.62369 44.959 3.84944C45.3988 4.06255 45.8439 4.26482 46.2801 4.48153C47.0946 4.8945 47.9073 5.31258 48.7181 5.73579C49.2509 6.01391 49.7783 6.30286 50.3092 6.5846C50.3471 6.60074 50.3882 6.60785 50.4293 6.60536C50.7171 6.60536 51.0051 6.60536 51.2935 6.60536C51.5869 6.60536 51.8813 6.60537 52.1757 6.59724C52.1965 6.59724 52.2163 6.57647 52.2425 6.56112L52.1251 6.32273C52.2777 6.32273 52.4123 6.32273 52.5459 6.32273C52.9577 6.33988 53.3694 6.35794 53.7812 6.37962C54.2959 6.4055 54.8103 6.4341 55.3244 6.46541C55.5619 6.47985 55.7994 6.50965 56.0369 6.51868C56.6139 6.54216 57.1918 6.55932 57.7688 6.57647C58.1408 6.58821 58.512 6.59633 58.8831 6.60536C59.3237 6.6153 59.7644 6.62072 60.2051 6.63426C60.6836 6.64962 61.1613 6.66676 61.6399 6.69205C62.0733 6.71372 62.5071 6.74202 62.9411 6.77693C63.3312 6.80854 63.7213 6.84827 64.115 6.8889C64.6853 6.93397 65.2502 7.0313 65.8027 7.17966C66.4149 7.36026 67.019 7.56976 67.6204 7.78286C68.2742 8.01403 68.9225 8.26054 69.57 8.50525C69.8634 8.61722 70.1497 8.74635 70.4404 8.86645C70.8468 9.03079 71.2531 9.18701 71.6613 9.35497C72.0694 9.52292 72.4532 9.69268 72.8469 9.86605C73.2912 10.0611 73.7354 10.2571 74.177 10.4593C74.6186 10.6616 75.0529 10.8846 75.4204 11.2151C75.5721 11.3524 75.7401 11.4725 75.899 11.6025C75.9384 11.6403 75.9754 11.6804 76.0101 11.7226C75.9297 11.7226 75.8854 11.7325 75.8412 11.7325C73.7878 11.7325 71.7344 11.7325 69.681 11.7325C69.4887 11.7325 69.4499 11.5817 69.3532 11.4869C69.0634 11.2052 68.7943 10.9027 68.4936 10.6336C68.2047 10.3767 67.9008 10.1373 67.5834 9.91662C66.8801 9.42533 66.084 9.08273 65.2437 8.90979C64.8938 8.83397 64.5371 8.79314 64.1791 8.78789C64.0057 8.78789 63.8278 8.80233 63.6527 8.79692C63.3673 8.78789 63.0811 8.81949 62.7957 8.83845C62.5537 8.8547 62.3099 8.86554 62.0733 8.89895C61.807 8.93598 61.5433 8.98925 61.2796 9.04614C60.7671 9.15071 60.27 9.32034 59.8005 9.55091C59.1118 9.88069 58.5016 10.3539 58.0108 10.9388C57.8356 11.1492 57.6758 11.3722 57.5069 11.5881C57.4808 11.6154 57.4524 11.6404 57.4221 11.663L57.3841 11.6314C57.655 11.2485 57.9259 10.8648 58.204 10.4656C58.1034 10.4448 58.0014 10.4309 57.8988 10.4241C57.3516 10.4241 56.8035 10.4169 56.2563 10.4241C56.1509 10.431 56.0495 10.4672 55.9637 10.5289C55.5447 10.8205 55.133 11.1221 54.7194 11.4201C54.602 11.5188 54.476 11.6067 54.3429 11.6829C54.2453 11.7289 54.1189 11.7145 54.006 11.728L53.9952 11.6738L54.891 11.0282C54.8178 11.0219 54.7763 11.0147 54.7348 11.0147H53.9139C53.8181 11.0151 53.7222 11.0106 53.6268 11.0011C53.5943 11.0011 53.5654 10.9668 53.5085 10.9325L53.7478 10.7772C53.9338 10.77 54.1198 10.7654 54.3058 10.7528C54.3383 10.7528 54.3699 10.7203 54.3961 10.6995C54.8175 10.4124 55.2389 10.1246 55.6603 9.83626C55.7118 9.80104 55.7587 9.7595 55.8256 9.70622L55.5727 9.54188C55.2115 9.78117 54.8567 10.0187 54.5018 10.2643C54.2526 10.4313 54.0042 10.6074 53.7532 10.7817ZM66.7562 8.02757C66.7562 8.04292 66.7562 8.05737 66.7499 8.07272C66.7653 8.08085 66.7797 8.09078 66.796 8.098C67.3585 8.33459 67.9373 8.53776 68.4791 8.81497C69.0932 9.12921 69.6729 9.51209 70.2689 9.86154C70.8648 10.211 71.4066 10.6056 72.0821 10.7772C72.5281 10.89 72.9616 11.0481 73.4022 11.1835C73.7472 11.2865 74.0957 11.3786 74.4443 11.467C74.5078 11.4717 74.5717 11.4653 74.633 11.4481C74.6086 11.3768 74.6041 11.2828 74.5544 11.2395C74.3738 11.0815 74.186 10.9388 73.9964 10.7952C73.9407 10.7601 73.8821 10.7299 73.8212 10.7049C73.9358 10.8156 74.0564 10.9199 74.1824 11.0174C74.2154 11.0592 74.2404 11.1066 74.2565 11.1573C74.2104 11.1599 74.1641 11.1584 74.1183 11.1528C74.0596 11.142 74.0045 11.1149 73.9458 11.1022C73.7472 11.0598 73.5458 11.0273 73.349 10.9776C73.0094 10.8873 72.6672 10.8088 72.334 10.7004C72.0008 10.5921 71.6459 10.4936 71.3407 10.3184C70.6869 9.9419 70.0666 9.50577 69.4219 9.11658C68.7605 8.69571 68.0435 8.36958 67.2917 8.14767C67.1138 8.09711 66.9341 8.0673 66.7562 8.02757Z" fill="url(#paint1_linear_310_25800)"/>
<path d="M1.65684 5.93714C1.63065 6.05001 1.60447 6.15747 1.57918 6.26492C1.48888 6.65862 1.39859 7.05234 1.30829 7.44694C1.29113 7.52369 1.26224 7.56522 1.17916 7.56161C1.08034 7.56498 0.981407 7.56196 0.882978 7.55258C0.839634 7.54536 0.770109 7.47945 0.774623 7.44784C0.825191 7.04782 0.792681 6.62974 1.00398 6.26132C1.10963 6.0744 1.39949 5.85767 1.65684 5.93714Z" fill="#FF0000"/>
<path d="M2.34608 3.94336C2.32328 4.00446 2.2857 4.05895 2.2367 4.10197C2.18769 4.14499 2.12879 4.17519 2.06525 4.18988C1.8079 4.17995 1.55055 4.17362 1.2932 4.16369C1.11983 4.15646 0.947356 4.14293 0.774885 4.1366C0.706258 4.1366 0.635823 4.12487 0.660204 4.04631C0.669782 4.01718 0.685913 3.99063 0.70736 3.96872C0.728806 3.9468 0.754997 3.93009 0.783913 3.91989C0.919928 3.90769 1.05668 3.90588 1.19297 3.91447C1.55416 3.9217 1.90633 3.93253 2.26301 3.94246C2.291 3.93704 2.31809 3.94336 2.34608 3.94336Z" fill="url(#paint2_linear_310_25800)"/>
<path d="M26.4005 5.16692C26.2316 5.26624 26.1215 5.2256 26.0862 5.05945C26.0755 5.01189 26.0491 4.9693 26.0113 4.93846C26.0127 4.97207 26.01 5.00574 26.0032 5.03869C25.9863 5.08598 25.9664 5.13214 25.9436 5.17685C25.8876 5.13621 25.7937 5.16781 25.7738 5.04952C25.7151 4.69826 25.6338 4.34971 25.567 3.99935C25.5002 3.64899 25.4442 3.31579 25.381 2.97446C25.3331 2.71891 25.279 2.46518 25.2293 2.21053C25.2176 2.14642 25.2149 2.0805 25.2022 2.01639C25.1895 1.9496 25.155 1.88888 25.1043 1.84365C25.0535 1.79842 24.9892 1.77122 24.9214 1.76626L24.9331 1.7193C25.0595 1.69492 25.1851 1.66512 25.3124 1.65158C25.3313 1.65158 25.3648 1.7175 25.3792 1.75814C25.3923 1.80272 25.4017 1.84833 25.4072 1.89449H25.4478C25.4532 1.85114 25.4749 1.80419 25.4605 1.76716C25.4135 1.64707 25.4821 1.64616 25.5688 1.64165C26.0456 1.61546 26.5215 1.58566 26.9983 1.55676C27.3251 1.5378 27.652 1.51613 27.9789 1.49987C28.583 1.47007 29.1862 1.43848 29.7903 1.4168C30.2797 1.39965 30.7691 1.39242 31.2586 1.38971C31.4924 1.38971 31.7263 1.40416 31.9611 1.4159C32.4758 1.44299 32.9905 1.46827 33.5052 1.50078C33.8592 1.52335 34.2149 1.54051 34.5662 1.59107C35.1297 1.66963 35.6904 1.77168 36.216 2.00736C36.7677 2.25568 37.3293 2.48142 37.8684 2.75412C38.6558 3.15144 39.4315 3.57495 40.2036 4.00206C40.4479 4.15347 40.6842 4.31743 40.9115 4.49328L40.8871 4.54746C40.8297 4.53806 40.7736 4.5217 40.7201 4.4987C40.2325 4.22058 39.7548 3.9244 39.259 3.66253C38.6694 3.3501 38.0671 3.06115 37.4657 2.77309C37.1314 2.60395 36.788 2.45322 36.4372 2.3216C35.9508 2.14635 35.4552 1.99774 34.9527 1.87642C34.569 1.79973 34.1803 1.75024 33.7896 1.72833C33.4221 1.69582 33.0519 1.68589 32.6826 1.67054C32.3728 1.65699 32.0622 1.65068 31.7525 1.64165C31.4428 1.63262 31.1421 1.61455 30.8378 1.61546C30.4332 1.61546 30.0296 1.63171 29.6251 1.64165C29.2873 1.64977 28.9487 1.6579 28.611 1.67054C28.1423 1.68679 27.6737 1.70214 27.205 1.72923C26.9287 1.74458 26.6542 1.78431 26.3779 1.80508C26.2297 1.81411 26.081 1.81411 25.9327 1.80508C25.8162 1.79966 25.7919 1.85836 25.8081 1.95227C25.8713 2.32249 25.9391 2.69182 26.0032 3.06205C26.0709 3.45033 26.1359 3.83952 26.2027 4.22781C26.2485 4.49328 26.2963 4.75846 26.3463 5.02333C26.3597 5.07283 26.3778 5.12092 26.4005 5.16692ZM25.967 4.8635L26.0194 4.85447L25.9102 4.21697L25.8551 4.226L25.967 4.8635ZM25.7359 3.30856L25.6835 3.31489C25.6943 3.42595 25.7061 3.53611 25.7169 3.64718L25.7837 3.63815C25.7675 3.52799 25.7521 3.41782 25.7359 3.31127V3.30856Z" fill="url(#paint3_linear_310_25800)"/>
<path d="M24.3491 5.02695L25.2792 5.1633C25.6404 5.21567 26.0016 5.26805 26.3556 5.32313C26.7096 5.37821 27.0608 5.4351 27.4139 5.48837C27.6848 5.52991 27.9665 5.56513 28.2419 5.60577C28.5173 5.6464 28.7837 5.69607 29.0546 5.73128C29.3255 5.7665 29.5711 5.79991 29.8303 5.83242C30.1578 5.87275 30.4859 5.91278 30.8145 5.95251L31.7175 6.05907C32.0327 6.09519 32.3496 6.1322 32.6612 6.16652C32.8797 6.19 33.0991 6.20716 33.3176 6.22883C33.6788 6.26495 34.04 6.30468 34.4012 6.33899C34.5592 6.35434 34.7191 6.35615 34.8771 6.3715C35.2437 6.40581 35.6103 6.44644 35.9769 6.48076C36.2334 6.50423 36.4898 6.51959 36.7454 6.54036C37.1923 6.57738 37.6384 6.61621 38.0845 6.65233C38.2245 6.66406 38.3644 6.67038 38.5044 6.68212C38.8204 6.70921 39.1365 6.74082 39.4525 6.7643C39.6674 6.78055 39.8833 6.78687 40.0982 6.79499C40.2128 6.79951 40.3284 6.78868 40.4422 6.80132C40.5424 6.81125 40.5442 6.89161 40.5325 6.97469C40.5336 6.99208 40.5306 7.0095 40.5239 7.02556C40.5171 7.04162 40.5067 7.0559 40.4935 7.06727C40.4803 7.07864 40.4646 7.08679 40.4477 7.0911C40.4308 7.09541 40.4132 7.09574 40.3962 7.09208C39.9618 7.05867 39.5266 7.03068 39.0931 6.99275C38.6191 6.95122 38.1459 6.89703 37.6718 6.85459C37.4669 6.83653 37.2592 6.84015 37.0542 6.82209C36.6695 6.79048 36.2857 6.74805 35.902 6.71373C35.7295 6.69838 35.5561 6.69566 35.3828 6.68122C34.9556 6.646 34.5276 6.60627 34.0996 6.57015C33.8486 6.54938 33.5967 6.53583 33.3456 6.51145C33.0124 6.47804 32.6792 6.43741 32.3469 6.40129C32.2566 6.39046 32.1609 6.38143 32.067 6.37511C31.7871 6.35344 31.5062 6.33989 31.2272 6.3128C30.838 6.27397 30.4506 6.2225 30.0624 6.17916C29.9883 6.17103 29.9152 6.15659 29.8411 6.14846C29.5702 6.11776 29.3038 6.09338 29.0366 6.05816C28.7693 6.02295 28.5038 5.97598 28.2374 5.93716C27.971 5.89833 27.7227 5.86854 27.4654 5.83242C27.1845 5.79268 26.9046 5.74933 26.6238 5.7105C26.3529 5.67438 26.0883 5.64279 25.821 5.60577C25.4716 5.5561 25.123 5.50372 24.7736 5.45225C24.7372 5.44492 24.7004 5.4398 24.6634 5.43691C24.4918 5.43691 24.3203 5.43691 24.1496 5.42517C24.1234 5.42517 24.0755 5.35654 24.0828 5.33487C24.1001 5.2531 24.1356 5.17627 24.1866 5.11003C24.2342 5.07102 24.2896 5.04268 24.3491 5.02695Z" fill="url(#paint4_linear_310_25800)"/>
<path d="M2.9123 20.1068C2.85812 20.1068 2.83645 20.1285 2.81477 20.1971L2.23506 21.7322C2.1462 21.9406 2.09191 22.162 2.07432 22.3878C2.07432 22.581 2.17094 22.721 2.50324 22.721H2.66488C2.79401 22.721 2.82561 22.7427 2.82561 22.8113C2.82561 22.8971 2.7615 22.9187 2.64501 22.9187C2.30097 22.9187 1.83955 22.8862 1.50635 22.8862C1.38805 22.8862 0.7975 22.9187 0.242162 22.9187C0.102199 22.9187 0.0380859 22.8971 0.0380859 22.8113C0.0380859 22.7472 0.0805248 22.721 0.166309 22.721C0.277676 22.7195 0.388892 22.7123 0.499512 22.6993C0.993446 22.6352 1.19753 22.2695 1.41244 21.7322L4.10876 14.9869C4.23788 14.6754 4.302 14.558 4.40945 14.558C4.51691 14.558 4.57019 14.6546 4.68035 14.9011C4.93861 15.4917 6.65699 19.8748 7.34417 21.5074C7.75232 22.4736 8.06655 22.6244 8.28959 22.6813C8.43833 22.7103 8.58954 22.7248 8.74109 22.7246C8.83138 22.7246 8.88014 22.7354 8.88014 22.8149C8.88014 22.8944 8.78353 22.9224 8.38621 22.9224C7.9889 22.9224 7.21233 22.9224 6.3563 22.9007C6.16306 22.8898 6.03393 22.8898 6.03393 22.8149C6.03393 22.74 6.07727 22.7246 6.18473 22.7183C6.20797 22.7092 6.22909 22.6954 6.24674 22.6778C6.26438 22.6601 6.27818 22.639 6.28726 22.6158C6.29634 22.5925 6.3005 22.5676 6.29948 22.5427C6.29847 22.5177 6.29229 22.4933 6.28135 22.4709L5.4217 20.1944C5.41545 20.1712 5.40129 20.151 5.38167 20.1371C5.36204 20.1233 5.33819 20.1167 5.31424 20.1186L2.9123 20.1068ZM5.10295 19.565C5.15713 19.565 5.16706 19.5334 5.15713 19.5009L4.19274 16.8561C4.1819 16.8136 4.17106 16.7595 4.13946 16.7595C4.10785 16.7595 4.08528 16.8136 4.07444 16.8561L3.08657 19.4982C3.07574 19.5416 3.08657 19.5732 3.12901 19.5732L5.10295 19.565Z" fill="white"/>
<path d="M7.22097 21.5516C6.99702 21.0207 6.66021 20.189 6.30353 19.2996H5.21995L5.28045 19.4648C5.2901 19.491 5.29326 19.5191 5.28964 19.5468C5.28603 19.5745 5.27574 19.6009 5.25968 19.6237C5.24195 19.6471 5.21879 19.6659 5.1922 19.6783C5.16561 19.6907 5.13639 19.6965 5.10707 19.6951H3.13043C3.10437 19.6958 3.07849 19.6904 3.05484 19.6795C3.03118 19.6685 3.01038 19.6522 2.99408 19.6319C2.97641 19.6079 2.9646 19.5802 2.95958 19.5509C2.95456 19.5215 2.95648 19.4914 2.96518 19.463V19.4567L3.02388 19.2996H2.5173L1.52402 21.7746C1.3389 22.2388 1.14476 22.637 0.704102 22.777C0.916304 22.777 1.11135 22.7643 1.26215 22.7589C1.37954 22.7544 1.46532 22.7517 1.50324 22.7517C1.6712 22.7517 1.87347 22.7598 2.06942 22.767H2.15972C2.09163 22.729 2.03578 22.6724 1.99869 22.6038C1.96159 22.5352 1.94478 22.4574 1.95022 22.3797C1.96737 22.1386 2.02443 21.9021 2.11908 21.6798L2.6979 20.1448C2.70853 20.0956 2.73583 20.0517 2.77517 20.0204C2.81451 19.9892 2.86347 19.9725 2.91372 19.9732H5.30934C5.35879 19.9714 5.40748 19.9856 5.44817 20.0138C5.48885 20.0419 5.51934 20.0825 5.53509 20.1294L6.39293 22.4031C6.4117 22.4447 6.42141 22.4898 6.42141 22.5354C6.42141 22.581 6.4117 22.6261 6.39293 22.6677C6.37766 22.7015 6.35622 22.7321 6.32972 22.758H6.35591C7.09907 22.7761 7.79075 22.7788 8.20974 22.7788C7.92439 22.7056 7.61015 22.4772 7.22097 21.5516Z" fill="url(#paint5_linear_310_25800)"/>
<path d="M9.91464 17.9071C9.91464 16.2745 9.91464 15.9739 9.89297 15.6298C9.8713 15.2686 9.78551 15.088 9.43064 15.0176C9.29235 14.9933 9.15203 14.9824 9.01165 14.9851C8.89426 14.9851 8.83105 14.9634 8.83105 14.8885C8.83105 14.8135 8.906 14.7918 9.06764 14.7918C9.63652 14.7918 10.3138 14.8243 10.6361 14.8243C10.8935 14.8243 11.5707 14.7918 11.9572 14.7918C12.1179 14.7918 12.1929 14.8135 12.1929 14.8885C12.1929 14.9634 12.1288 14.9851 12.0213 14.9851C11.9167 14.9857 11.8123 14.9966 11.7098 15.0176C11.4199 15.0709 11.3341 15.2542 11.3125 15.6298C11.2908 15.9739 11.2908 16.2745 11.2908 17.9071V19.4106C11.2908 20.9683 11.6023 21.6239 12.1288 22.0528C12.6119 22.4501 13.1067 22.4934 13.4715 22.4934C14.0223 22.5015 14.5543 22.2934 14.9533 21.9137C15.5448 21.3222 15.5764 20.3561 15.5764 19.2499V17.9071C15.5764 16.2745 15.5764 15.9739 15.5556 15.6298C15.5339 15.2686 15.4481 15.088 15.0933 15.0176C14.9658 14.9946 14.8364 14.9837 14.7068 14.9851C14.5885 14.9851 14.5262 14.9634 14.5262 14.8885C14.5262 14.8135 14.6011 14.7918 14.7519 14.7918C15.2992 14.7918 15.9764 14.8243 15.9863 14.8243C16.1155 14.8243 16.7927 14.7918 17.2117 14.7918C17.3616 14.7918 17.4365 14.8135 17.4365 14.8885C17.4365 14.9634 17.3724 14.9851 17.2433 14.9851C17.1386 14.9857 17.0343 14.9966 16.9318 15.0176C16.6419 15.0709 16.5561 15.2542 16.5344 15.6298C16.5128 15.9739 16.5128 16.2745 16.5128 17.9071V19.0567C16.5128 20.2486 16.3954 21.5164 15.4924 22.2894C14.7303 22.9449 13.9573 23.0632 13.2584 23.0632C12.6895 23.0632 11.6583 23.0307 10.8736 22.3219C10.3264 21.8279 9.91825 21.0324 9.91825 19.4756L9.91464 17.9071Z" fill="white"/>
<path d="M15.7014 19.3023C15.7014 20.4635 15.6436 21.4008 15.0413 22.0022C14.6193 22.4069 14.0547 22.6289 13.4701 22.6199C13.0737 22.6199 12.5526 22.5666 12.0479 22.1512C11.4158 21.6383 11.1638 20.8446 11.1638 19.4106V19.3023H10.0405V19.4748C10.0405 20.7895 10.3313 21.6645 10.9553 22.2271C11.739 22.9359 12.8019 22.9359 13.2552 22.9359C13.8873 22.9359 14.6449 22.8456 15.407 22.1927C16.207 21.5074 16.3642 20.4139 16.3813 19.3032L15.7014 19.3023Z" fill="url(#paint6_linear_310_25800)"/>
<path d="M21.3854 15.3932L19.7853 15.4366C19.1622 15.4582 18.904 15.5115 18.7432 15.7481C18.6629 15.8626 18.6019 15.9895 18.5626 16.1237C18.5419 16.2095 18.5094 16.2529 18.4453 16.2529C18.3811 16.2529 18.3486 16.1987 18.3486 16.0813C18.3486 15.9088 18.5527 14.9318 18.5735 14.846C18.606 14.7061 18.6385 14.6419 18.7026 14.6419C18.7929 14.6419 18.8958 14.7494 19.1649 14.7702C19.4765 14.8027 19.8873 14.8243 20.2386 14.8243H24.4926C24.7404 14.8243 24.9878 14.8062 25.233 14.7702C25.3289 14.7471 25.426 14.7293 25.5238 14.7169C25.5987 14.7169 25.6096 14.781 25.6096 14.9426C25.6096 15.1684 25.5771 15.9088 25.5771 16.1888C25.5662 16.2962 25.5445 16.3603 25.4804 16.3603C25.3901 16.3603 25.373 16.3061 25.3621 16.1454L25.3513 16.0271C25.3296 15.7481 25.0398 15.4474 24.0871 15.4257L22.7326 15.3932V19.7971C22.7326 20.7904 22.7326 21.6338 22.7859 22.0961C22.8184 22.3968 22.8825 22.6379 23.2049 22.6758C23.3865 22.7014 23.5696 22.7159 23.753 22.7192C23.8713 22.7192 23.9246 22.7517 23.9246 22.8095C23.9246 22.8844 23.8343 22.9169 23.7205 22.9169C23.0117 22.9169 22.3353 22.8844 22.0346 22.8844C21.7872 22.8844 21.1109 22.9169 20.6801 22.9169C20.5402 22.9169 20.4652 22.8844 20.4652 22.8095C20.4652 22.7562 20.5077 22.7192 20.6368 22.7192C20.7668 22.7193 20.8965 22.7047 21.0233 22.6758C21.2382 22.6334 21.3032 22.3968 21.3348 22.0853C21.389 21.6338 21.389 20.7859 21.389 19.7971L21.3854 15.3932Z" fill="white"/>
<path d="M22.6568 22.1106C22.6017 21.641 22.6017 20.7868 22.6017 19.7971V19.3023H21.5118V19.7971C21.5118 20.7904 21.5118 21.6419 21.4567 22.0979C21.4377 22.2885 21.398 22.6704 21.1172 22.7788L21.5208 22.767C21.7348 22.7598 21.9227 22.7544 22.0301 22.7544C22.1376 22.7544 22.3272 22.7544 22.5439 22.7652C22.7046 22.7652 22.8852 22.7752 23.0776 22.7788C22.7164 22.6731 22.6776 22.3119 22.6568 22.1106Z" fill="url(#paint7_linear_310_25800)"/>
<path d="M26.7012 18.8526C26.7012 17.015 27.9157 14.6419 31.1376 14.6419C33.8122 14.6419 35.4773 16.1987 35.4773 18.6584C35.4773 21.1182 33.7616 23.0632 31.0301 23.0632C27.9473 23.0632 26.7012 20.7534 26.7012 18.8526ZM33.9729 19.0566C33.9729 16.6502 32.5878 15.1575 30.826 15.1575C29.5907 15.1575 28.1839 15.8447 28.1839 18.5194C28.1839 20.7534 29.4192 22.5259 31.4816 22.5259C32.2329 22.5259 33.9729 22.1602 33.9729 19.0566Z" fill="white"/>
<path d="M34.0948 19.3023C33.9982 22.404 32.0803 22.6515 31.4816 22.6515C29.6901 22.6515 28.3789 21.3087 28.1098 19.3023H26.8511C27.0371 21.129 28.3618 22.9368 31.0301 22.9368C33.3517 22.9368 35.033 21.4722 35.3103 19.3023H34.0948Z" fill="url(#paint8_linear_310_25800)"/>
<path d="M38.151 17.9071C38.151 16.2745 38.151 15.9739 38.1294 15.6298C38.1077 15.2686 38.0219 15.088 37.667 15.0176C37.529 14.9934 37.389 14.9825 37.249 14.9851C37.1307 14.9851 37.0684 14.9634 37.0684 14.8885C37.0684 14.8135 37.1442 14.7918 37.3049 14.7918C37.8747 14.7918 38.5511 14.8243 38.766 14.8243C39.2924 14.8243 39.7114 14.7918 40.0762 14.7918C42.0203 14.7918 42.3644 15.8339 42.3644 16.4028C42.3644 17.2841 41.8596 17.8105 41.2682 18.2828C42.1495 18.5835 43.2231 19.3465 43.2231 20.6026C43.2231 21.7521 42.3319 22.9449 40.3552 22.9449C40.2261 22.9449 39.9155 22.9232 39.604 22.9124C39.2924 22.9016 38.9592 22.8799 38.7976 22.8799C38.6802 22.8799 38.4436 22.8799 38.1854 22.8907C37.9271 22.9016 37.6598 22.9124 37.4449 22.9124C37.3049 22.9124 37.23 22.8799 37.23 22.805C37.23 22.7517 37.2724 22.7147 37.4016 22.7147C37.5316 22.7147 37.6612 22.7002 37.788 22.6713C38.003 22.6289 38.0589 22.3923 38.0996 22.0808C38.1538 21.6293 38.1538 20.7814 38.1538 19.7926L38.151 17.9071ZM39.4396 18.0877C39.4396 18.1735 39.4721 18.1952 39.5155 18.206C39.6823 18.2333 39.8513 18.2442 40.0202 18.2385C40.3742 18.2385 40.6108 18.1952 40.7932 18.0336C41.0722 17.8087 41.2338 17.4222 41.2338 16.8958C41.2338 16.1734 40.8149 15.2307 39.8911 15.2307C39.7724 15.2257 39.6535 15.2329 39.5362 15.2524C39.4613 15.2731 39.4396 15.3165 39.4396 15.433V18.0877ZM40.8573 18.9474C40.6325 18.7858 40.385 18.7108 39.9661 18.6891C39.7728 18.6783 39.6654 18.6783 39.5046 18.6783C39.4613 18.6783 39.4396 18.7 39.4396 18.7542V21.2997C39.4396 22.0085 39.4721 22.1909 39.8162 22.3309C40.0658 22.4271 40.3326 22.4708 40.5999 22.4591C41.083 22.4591 41.8993 22.2018 41.8993 21.0848C41.8993 20.4202 41.6736 19.5181 40.8537 18.9492L40.8573 18.9474Z" fill="white"/>
<path d="M41.4237 19.3023C41.9565 19.9524 42.026 20.7317 42.026 21.0866C42.026 22.1945 41.2576 22.5873 40.6002 22.5873C40.3164 22.5989 40.0333 22.5518 39.7686 22.4492C39.3315 22.2686 39.3171 21.9869 39.3171 21.3015V19.3023H38.2795V19.7971C38.2795 20.7904 38.2795 21.6419 38.2253 22.1024C38.1919 22.3426 38.1477 22.6632 37.9048 22.7716C37.9951 22.7716 38.0899 22.7652 38.1757 22.7652C38.4357 22.7544 38.6768 22.7544 38.7924 22.7544C38.9495 22.7544 39.2701 22.7643 39.6051 22.786C39.7496 22.7914 39.895 22.7987 40.0214 22.805C40.1632 22.8122 40.286 22.8185 40.3519 22.8185C42.2482 22.8185 43.0943 21.706 43.0943 20.6026C43.0932 20.1237 42.9179 19.6615 42.6012 19.3023H41.4237Z" fill="url(#paint9_linear_310_25800)"/>
<path d="M45.9591 17.9072C45.9591 16.2746 45.9591 15.9739 45.9375 15.6298C45.9158 15.2686 45.83 15.088 45.476 15.0176C45.3377 14.9934 45.1974 14.9825 45.0571 14.9851C44.9388 14.9851 44.8765 14.9634 44.8765 14.8885C44.8765 14.8135 44.9523 14.7918 45.113 14.7918C45.4029 14.7918 45.7144 14.8027 45.9835 14.8027C46.2526 14.8027 46.51 14.8244 46.6599 14.8244C47.0039 14.8244 49.1413 14.8244 49.3454 14.8135C49.5002 14.8001 49.6542 14.7787 49.8068 14.7494C49.8629 14.7299 49.9206 14.7154 49.9793 14.7061C50.0325 14.7061 50.0434 14.7494 50.0434 14.8027C50.0016 15.0337 49.9714 15.2667 49.9531 15.5007C49.9422 15.6081 49.9206 16.0813 49.8989 16.2095C49.889 16.2637 49.8673 16.3278 49.7923 16.3278C49.7174 16.3278 49.6948 16.2745 49.6948 16.1779C49.696 16.0461 49.6743 15.915 49.6307 15.7905C49.5557 15.5973 49.4501 15.4691 48.9083 15.4041C48.7277 15.3824 47.5981 15.3616 47.3832 15.3616C47.329 15.3616 47.3082 15.3932 47.3082 15.4691V18.1862C47.3082 18.2611 47.319 18.3045 47.3832 18.3045C47.6197 18.3045 48.855 18.3045 49.0988 18.2828C49.3426 18.2611 49.5178 18.2295 49.6144 18.1221C49.6894 18.0318 49.7327 17.9821 49.7869 17.9821C49.8411 17.9821 49.8619 18.0038 49.8619 18.0724C49.8619 18.141 49.8185 18.309 49.7716 18.8571C49.7607 19.0711 49.7282 19.5009 49.7282 19.5795C49.7282 19.6581 49.7282 19.7845 49.6316 19.7845C49.6186 19.7854 49.6055 19.7835 49.5933 19.779C49.5811 19.7744 49.57 19.7672 49.5608 19.758C49.5516 19.7487 49.5446 19.7375 49.5401 19.7253C49.5357 19.713 49.5339 19.6999 49.535 19.6869C49.5295 19.5573 49.515 19.4281 49.4916 19.3005C49.4384 19.0855 49.2876 18.9248 48.8902 18.8815C48.6862 18.8607 47.6261 18.8499 47.3651 18.8499C47.3118 18.8499 47.301 18.8923 47.301 18.9573V19.8052C47.301 20.1664 47.2902 21.1597 47.301 21.4703C47.3218 22.2117 47.4942 22.3733 48.5896 22.3733C48.8686 22.3733 49.3201 22.3733 49.5991 22.2451C49.8781 22.1169 50.0072 21.8902 50.0831 21.4496C50.1039 21.3313 50.1255 21.2888 50.2005 21.2888C50.2754 21.2888 50.2908 21.3791 50.2908 21.4821C50.2724 21.8822 50.2256 22.2805 50.1508 22.674C50.0759 22.954 49.9792 22.954 49.5711 22.954C48.7647 22.954 48.1742 22.9323 47.7128 22.9215C47.2513 22.9106 46.9172 22.8889 46.5958 22.8889C46.4775 22.8889 46.2409 22.8889 45.9835 22.8998C45.7262 22.9106 45.4571 22.9215 45.2422 22.9215C45.1022 22.9215 45.0273 22.8889 45.0273 22.814C45.0273 22.7607 45.0706 22.7237 45.1988 22.7237C45.3292 22.7237 45.4591 22.7092 45.5862 22.6803C45.8002 22.6379 45.8571 22.4013 45.8968 22.0898C45.951 21.6383 45.951 20.7904 45.951 19.8016L45.9591 17.9072Z" fill="white"/>
<path d="M49.6641 22.3508C49.3598 22.4907 48.9038 22.4907 48.6013 22.4907C47.4753 22.4907 47.2107 22.2993 47.1863 21.4667C47.1791 21.2428 47.1863 20.6866 47.1863 20.2396C47.1863 20.059 47.1863 19.9028 47.1863 19.7971V19.3023H46.0856V19.7971C46.0856 20.7904 46.0856 21.6419 46.0305 22.1024C45.9971 22.3426 45.9529 22.6632 45.71 22.7716C45.8003 22.7716 45.896 22.7652 45.9809 22.7652C46.2409 22.7544 46.482 22.7544 46.5985 22.7544C46.9037 22.7544 47.2189 22.7634 47.7182 22.786L48.0225 22.7941C48.4298 22.805 48.9363 22.8185 49.5738 22.8185C49.982 22.8185 49.9829 22.8185 50.0308 22.6379C50.0879 22.3412 50.1283 22.0416 50.1518 21.7403C50.0768 22.013 49.9405 22.2225 49.6641 22.3508Z" fill="url(#paint10_linear_310_25800)"/>
<path d="M53.1768 17.9071C53.1768 16.2745 53.1768 15.9739 53.1552 15.6298C53.1335 15.2686 53.0477 15.088 52.6928 15.0176C52.5546 14.9933 52.4142 14.9824 52.2739 14.9851C52.1565 14.9851 52.0933 14.9634 52.0933 14.8885C52.0933 14.8135 52.1691 14.7918 52.3298 14.7918C52.8987 14.7918 53.576 14.8243 53.8017 14.8243C54.1629 14.8243 54.9828 14.7918 55.316 14.7918C55.9924 14.7918 56.712 14.8569 57.2927 15.2542C57.5187 15.4272 57.7021 15.6498 57.8286 15.9048C57.9551 16.1598 58.0213 16.4405 58.0223 16.7251C58.0223 17.5207 57.69 18.2503 56.6046 19.1316C57.5609 20.3344 58.3022 21.2906 58.9361 21.9561C59.5375 22.5792 59.9773 22.6551 60.1389 22.6867C60.2379 22.7065 60.3386 22.7174 60.4396 22.7192C60.5254 22.7192 60.5687 22.7517 60.5687 22.8095C60.5687 22.8953 60.4929 22.9169 60.3646 22.9169H59.3443C58.742 22.9169 58.4738 22.8627 58.1948 22.7128C57.7324 22.4654 57.3243 21.9607 56.7229 21.1335C56.2931 20.543 55.7991 19.8124 55.6601 19.6517C55.6363 19.6243 55.6062 19.603 55.5724 19.5898C55.5385 19.5766 55.502 19.5718 55.4659 19.5759L54.5322 19.5551C54.4781 19.5551 54.4419 19.5759 54.4419 19.6454V19.7953C54.4419 20.7949 54.4419 21.6428 54.4961 22.0943C54.5286 22.4058 54.5927 22.6424 54.9151 22.6849C55.0897 22.7088 55.2654 22.7233 55.4415 22.7282C55.5318 22.7282 55.5698 22.7607 55.5698 22.8185C55.5698 22.8935 55.4948 22.926 55.3549 22.926C54.7318 22.926 53.9372 22.8934 53.7764 22.8934C53.5724 22.8934 52.8951 22.926 52.4662 22.926C52.3262 22.926 52.2513 22.8935 52.2513 22.8185C52.2513 22.7652 52.2937 22.7282 52.4229 22.7282C52.5529 22.7283 52.6825 22.7137 52.8093 22.6849C53.0242 22.6424 53.0802 22.4058 53.1209 22.0943C53.175 21.6428 53.175 20.7949 53.175 19.8061L53.1768 17.9071ZM54.441 18.756C54.441 18.8733 54.4627 18.9167 54.5377 18.9492C54.8019 19.0241 55.0757 19.0603 55.3503 19.0567C55.7802 19.0567 55.9201 19.0133 56.1134 18.8761C56.4357 18.6404 56.7455 18.1455 56.7455 17.2651C56.7455 15.74 55.7359 15.2993 55.102 15.2993C54.911 15.2904 54.7197 15.305 54.5322 15.3427C54.4573 15.3643 54.4356 15.4068 54.4356 15.4926L54.441 18.756Z" fill="white"/>
<path d="M58.8422 22.0437C58.2896 21.4631 57.6683 20.6766 56.8782 19.6815L56.5775 19.3023H53.3024V19.7971C53.3024 20.7904 53.3024 21.6419 53.2482 22.1024C53.2139 22.349 53.1688 22.6795 52.9087 22.7788L53.3367 22.7661C53.5309 22.7598 53.6979 22.7544 53.7783 22.7544C53.8334 22.7544 53.9589 22.7544 54.1304 22.7625C54.311 22.768 54.5503 22.7752 54.795 22.7797C54.4627 22.6894 54.4013 22.3815 54.3724 22.0997C54.3183 21.6419 54.3183 20.7823 54.3183 19.7872V19.6364C54.3164 19.6078 54.3206 19.5791 54.3308 19.5523C54.341 19.5255 54.3568 19.5012 54.3772 19.4811C54.3976 19.461 54.422 19.4455 54.449 19.4357C54.4759 19.4258 54.5046 19.4219 54.5332 19.4242L55.4641 19.4459C55.5183 19.4419 55.5725 19.4507 55.6227 19.4713C55.6728 19.492 55.7175 19.5241 55.7531 19.565C55.838 19.6626 56.0303 19.9371 56.2741 20.2874C56.4475 20.534 56.6416 20.8094 56.8231 21.0595C57.4372 21.9038 57.8264 22.3742 58.2526 22.6018C58.5181 22.7445 58.7826 22.7905 59.3425 22.7905H59.9971C59.7768 22.7318 59.3651 22.5828 58.8422 22.0437Z" fill="url(#paint11_linear_310_25800)"/>
<path d="M64.9811 22.2893C66.0764 22.2893 66.4954 22.0184 66.667 21.6988C66.7559 21.5371 66.8213 21.3634 66.8611 21.1832C66.8819 21.0757 66.9035 21.0116 66.9676 21.0116C67.0579 21.0116 67.0751 21.0866 67.0751 21.3439C67.0751 21.688 66.936 22.386 66.8611 22.6551C66.8069 22.8483 66.732 22.9341 66.5387 22.9341C64.7445 22.9341 62.9403 22.8799 60.7704 22.8799C60.6521 22.8799 60.5898 22.8483 60.5898 22.7724C60.5898 22.6966 60.6214 22.6442 60.7506 22.4501C62.2649 20.087 63.855 17.6642 65.2944 15.3932H63.1868C62.6396 15.3932 61.9841 15.4257 61.64 15.619C61.4885 15.7084 61.3583 15.8297 61.2582 15.9743C61.1581 16.119 61.0906 16.2837 61.0603 16.4569C61.0386 16.6068 60.9962 16.6502 60.9312 16.6502C60.8662 16.6502 60.8409 16.5969 60.8409 16.4696C60.8409 16.2222 61.0025 15.2451 61.0558 14.9228C61.0775 14.772 61.1199 14.7187 61.1849 14.7187C61.2815 14.7187 61.3456 14.7828 61.6147 14.7936C62.6351 14.837 63.1498 14.8262 63.5905 14.8262H66.871C66.9785 14.8262 67.0516 14.8587 67.0516 14.9164C67.0386 14.9908 67.0076 15.0609 66.9613 15.1205C65.4795 17.527 63.8469 19.9867 62.3326 22.2957L64.9811 22.2893Z" fill="white"/>
<path d="M64.9807 22.4158H62.3377L62.2329 22.2198L62.8912 21.2175C63.3066 20.5842 63.725 19.9458 64.1463 19.3023H62.9291L62.791 19.5163C62.1435 20.5177 61.4925 21.5236 60.8531 22.5205C60.799 22.5915 60.7532 22.6684 60.7168 22.7499C60.7345 22.7518 60.7524 22.7518 60.7701 22.7499C61.9069 22.7499 62.9372 22.7643 63.9305 22.7779C64.8335 22.7914 65.6841 22.8032 66.5375 22.8032C66.6521 22.8032 66.6928 22.7788 66.7379 22.6162C66.812 22.3517 66.9474 21.6681 66.9483 21.3412C66.9062 21.4846 66.8487 21.623 66.7768 21.7539C66.5393 22.2063 65.9677 22.4158 64.9807 22.4158Z" fill="url(#paint12_linear_310_25800)"/>
<path d="M70.0393 20.1068C69.9851 20.1068 69.9635 20.1285 69.9427 20.1971L69.3621 21.7322C69.2732 21.9406 69.2189 22.162 69.2014 22.3878C69.2014 22.581 69.298 22.721 69.6312 22.721H69.7919C69.921 22.721 69.9535 22.7427 69.9535 22.8113C69.9535 22.8971 69.8885 22.9187 69.7729 22.9187C69.4298 22.9187 68.9675 22.8862 68.6343 22.8862C68.516 22.8862 67.9254 22.9187 67.3701 22.9187C67.2301 22.9187 67.166 22.8971 67.166 22.8113C67.166 22.7472 67.2085 22.721 67.2942 22.721C67.4056 22.7195 67.5168 22.7123 67.6274 22.6993C68.1214 22.6352 68.3255 22.2695 68.5404 21.7322L71.2367 14.9869C71.3658 14.6754 71.4299 14.558 71.5374 14.558C71.6448 14.558 71.6981 14.6546 71.8083 14.9011C72.0665 15.4917 73.7849 19.8748 74.4721 21.5074C74.8802 22.4736 75.1945 22.6244 75.4175 22.6813C75.5663 22.7103 75.7175 22.7248 75.869 22.7246C75.9548 22.7246 76.0081 22.7354 76.0081 22.8149C76.0081 22.8944 75.9115 22.9224 75.5141 22.9224C75.1168 22.9224 74.3403 22.9224 73.4842 22.9007C73.291 22.8898 73.1619 22.8898 73.1619 22.8149C73.1619 22.74 73.2052 22.7246 73.3127 22.7183C73.3359 22.7092 73.357 22.6954 73.3747 22.6778C73.3923 22.6601 73.4061 22.639 73.4152 22.6158C73.4243 22.5925 73.4284 22.5676 73.4274 22.5427C73.4264 22.5177 73.4202 22.4933 73.4093 22.4709L72.5496 20.1944C72.5434 20.1712 72.5292 20.151 72.5096 20.1371C72.49 20.1233 72.4661 20.1167 72.4422 20.1186L70.0393 20.1068ZM72.23 19.565C72.2842 19.565 72.295 19.5334 72.2842 19.5009L71.3171 16.8561C71.3062 16.8136 71.2954 16.7595 71.2638 16.7595C71.2322 16.7595 71.2096 16.8136 71.1988 16.8561L70.2109 19.4982C70.2001 19.5416 70.2109 19.5732 70.2542 19.5732L72.23 19.565Z" fill="white"/>
<path d="M74.3487 21.5516C74.1247 21.0207 73.7879 20.189 73.4312 19.2996H72.3477L72.4082 19.4648C72.4178 19.491 72.421 19.5191 72.4174 19.5468C72.4137 19.5745 72.4035 19.6009 72.3874 19.6237C72.3697 19.6471 72.3465 19.6659 72.3199 19.6783C72.2933 19.6907 72.2641 19.6965 72.2348 19.6951H70.2536C70.2276 19.6958 70.2017 19.6904 70.178 19.6795C70.1544 19.6685 70.1336 19.6522 70.1173 19.6319C70.0996 19.6081 70.0878 19.5805 70.0828 19.5513C70.0778 19.5221 70.0797 19.4922 70.0884 19.4639V19.4567L70.1471 19.2996H69.6423L68.649 21.7746C68.4639 22.2388 68.2698 22.637 67.8291 22.777C68.0413 22.777 68.2373 22.7643 68.3871 22.7589C68.5045 22.7544 68.5903 22.7517 68.6282 22.7517C68.7962 22.7517 68.9985 22.7598 69.1944 22.767H69.2847C69.2166 22.729 69.1608 22.6724 69.1237 22.6038C69.0866 22.5352 69.0698 22.4574 69.0752 22.3797C69.0924 22.1386 69.1494 21.9021 69.2441 21.6798L69.8229 20.1448C69.8336 20.0955 69.861 20.0514 69.9005 20.0201C69.94 19.9889 69.9892 19.9723 70.0396 19.9732H72.4343C72.4838 19.9714 72.5325 19.9856 72.5732 20.0138C72.6139 20.0419 72.6443 20.0825 72.6601 20.1294L73.5179 22.4031C73.5367 22.4447 73.5464 22.4898 73.5464 22.5354C73.5464 22.581 73.5367 22.6261 73.5179 22.6677C73.503 22.7017 73.4815 22.7324 73.4547 22.758H73.4818C74.2241 22.7761 74.9167 22.7788 75.3347 22.7788C75.0521 22.7056 74.7379 22.4772 74.3487 21.5516Z" fill="url(#paint13_linear_310_25800)"/>
<path d="M13.3454 26.2733C13.2885 26.137 13.2461 26.1099 13.1567 26.0846C13.125 26.0772 13.0926 26.0738 13.0601 26.0747C13.0375 26.0747 13.0303 26.0674 13.0303 26.0521C13.0303 26.0367 13.0574 26.0304 13.0944 26.0304C13.2262 26.0304 13.3653 26.0377 13.4556 26.0377C13.5179 26.0377 13.6362 26.0304 13.7617 26.0304C13.7915 26.0304 13.8186 26.0349 13.8186 26.0521C13.8186 26.0693 13.8032 26.0747 13.7816 26.0747C13.7481 26.0714 13.7144 26.0774 13.684 26.0918C13.6759 26.0978 13.6693 26.1057 13.6651 26.1149C13.6608 26.124 13.6589 26.1341 13.6597 26.1442C13.67 26.2103 13.6892 26.2746 13.7165 26.3356L14.1437 27.4635H14.1536C14.261 27.1926 14.5834 26.3907 14.6439 26.2264C14.6554 26.1975 14.6627 26.1671 14.6656 26.1361C14.6661 26.1258 14.6632 26.1156 14.6573 26.1071C14.6514 26.0986 14.6429 26.0923 14.6331 26.0891C14.6011 26.0799 14.5679 26.0757 14.5347 26.0765C14.5121 26.0765 14.4922 26.0765 14.4922 26.0566C14.4922 26.0368 14.5139 26.0322 14.5617 26.0322C14.6855 26.0322 14.7902 26.0395 14.8227 26.0395C14.8552 26.0395 14.9816 26.0322 15.0557 26.0322C15.0882 26.0322 15.1081 26.0367 15.1081 26.0539C15.1081 26.0711 15.0936 26.0765 15.0683 26.0765C15.0256 26.0742 14.9832 26.0846 14.9464 26.1063C14.9139 26.1288 14.8769 26.1713 14.8101 26.3302C14.7134 26.5632 14.6457 26.6977 14.5121 27.0038C14.3532 27.365 14.2358 27.6359 14.1816 27.7615C14.1166 27.905 14.1021 27.9421 14.0669 27.9421C14.0317 27.9421 14.0199 27.9077 13.9766 27.7913L13.3454 26.2733Z" fill="#FF0000"/>
<path d="M15.833 27.2603C15.8203 27.2603 15.8158 27.2603 15.8104 27.2802L15.6768 27.635C15.6559 27.6832 15.643 27.7344 15.6388 27.7867C15.6388 27.8319 15.6614 27.8635 15.7391 27.8635H15.7761C15.8059 27.8635 15.8131 27.8689 15.8131 27.8834C15.8131 27.8978 15.7987 27.9086 15.7707 27.9086C15.6912 27.9086 15.5847 27.9014 15.5079 27.9014C15.4799 27.9014 15.3436 27.9086 15.2144 27.9086C15.1819 27.9086 15.1675 27.9032 15.1675 27.8834C15.1675 27.8635 15.1774 27.8635 15.1973 27.8635C15.2229 27.8634 15.2485 27.8619 15.274 27.859C15.3878 27.8436 15.4357 27.7596 15.4853 27.635L16.1093 26.0747C16.1391 26.0024 16.1535 25.9753 16.1788 25.9753C16.2041 25.9753 16.2159 25.9979 16.2402 26.0548C16.2998 26.1921 16.698 27.2052 16.857 27.5827C16.9473 27.8066 17.0231 27.8418 17.0755 27.8536C17.1097 27.8606 17.1445 27.8639 17.1793 27.8635C17.2001 27.8635 17.2118 27.8635 17.2118 27.8834C17.2118 27.9032 17.1902 27.9086 17.0981 27.9086C17.006 27.9086 16.8272 27.9086 16.6285 27.9032C16.5834 27.9032 16.5536 27.9032 16.5536 27.8834C16.5536 27.8635 16.5635 27.8635 16.5888 27.8617C16.5942 27.8596 16.5991 27.8563 16.6032 27.8522C16.6073 27.848 16.6104 27.8431 16.6125 27.8376C16.6145 27.8322 16.6154 27.8263 16.6151 27.8205C16.6147 27.8147 16.6131 27.8091 16.6105 27.8039L16.4118 27.2775C16.4104 27.2722 16.4071 27.2676 16.4027 27.2645C16.3982 27.2614 16.3928 27.2599 16.3874 27.2603H15.833ZM16.3396 27.1357C16.3522 27.1357 16.3549 27.1285 16.3522 27.1212L16.1292 26.5072C16.1292 26.4973 16.1237 26.4846 16.1165 26.4846C16.1093 26.4846 16.1039 26.4973 16.1012 26.5072L15.8727 27.1185C15.8727 27.1285 15.8727 27.1357 15.8827 27.1357H16.3396Z" fill="#FF0000"/>
<path d="M17.8087 27.8788C17.7689 27.8617 17.7617 27.849 17.7617 27.794C17.7617 27.6576 17.7716 27.5086 17.7744 27.4689C17.7771 27.4292 17.7843 27.4039 17.8042 27.4039C17.824 27.4039 17.8285 27.4265 17.8285 27.4463C17.8307 27.4892 17.8383 27.5317 17.8511 27.5727C17.8719 27.6493 17.9187 27.7162 17.9834 27.762C18.0482 27.8079 18.1269 27.8297 18.206 27.8238C18.4299 27.8238 18.5392 27.6721 18.5392 27.5411C18.5392 27.4102 18.5022 27.3046 18.2954 27.1429L18.1816 27.0526C17.9107 26.8395 17.8141 26.6652 17.8141 26.4639C17.8141 26.193 18.0425 25.9943 18.3875 25.9943C18.4991 25.9931 18.6103 26.0074 18.718 26.0368C18.7406 26.0368 18.7532 26.0494 18.7532 26.0665C18.7532 26.0991 18.7433 26.1704 18.7433 26.3645C18.7433 26.4196 18.7351 26.4395 18.7153 26.4395C18.6954 26.4395 18.6909 26.4241 18.6909 26.3943C18.6861 26.3343 18.6634 26.2771 18.6259 26.23C18.5942 26.1891 18.5529 26.1566 18.5056 26.1355C18.4584 26.1144 18.4066 26.1053 18.355 26.109C18.1744 26.109 18.0588 26.2155 18.0588 26.3645C18.0588 26.4792 18.1157 26.5659 18.3225 26.7257L18.392 26.7781C18.6927 27.0048 18.7993 27.1754 18.7993 27.4102C18.8007 27.4963 18.78 27.5814 18.739 27.6571C18.698 27.7329 18.6382 27.7968 18.5654 27.8427C18.4464 27.914 18.3093 27.9491 18.1708 27.9439C18.0468 27.9484 17.9233 27.9263 17.8087 27.8788ZM18.0046 25.4814C18.0118 25.4726 18.0216 25.4662 18.0326 25.4633C18.0425 25.4633 18.0525 25.4688 18.0751 25.4904C18.1448 25.5542 18.2178 25.6145 18.2936 25.671C18.302 25.6797 18.3132 25.6851 18.3252 25.6864C18.3384 25.6862 18.3515 25.6828 18.3631 25.6765C18.4525 25.6211 18.5387 25.5608 18.6214 25.4959C18.6512 25.4715 18.6638 25.4633 18.6755 25.4633C18.6787 25.4635 18.6818 25.4642 18.6847 25.4656C18.6875 25.4669 18.6901 25.4688 18.6922 25.4712C18.6943 25.4735 18.6959 25.4763 18.697 25.4793C18.698 25.4823 18.6984 25.4855 18.6981 25.4886C18.6957 25.5034 18.6876 25.5167 18.6755 25.5257C18.6485 25.5555 18.383 25.8038 18.3478 25.8336C18.3125 25.8634 18.3107 25.8634 18.2954 25.8634C18.28 25.8634 18.2782 25.8561 18.2511 25.8363C18.224 25.8164 17.9929 25.6403 17.955 25.6123C17.917 25.5844 17.9206 25.5853 17.9206 25.578C17.9216 25.5683 17.9261 25.5593 17.9333 25.5528L18.0046 25.4814Z" fill="#FF0000"/>
<path d="M21.1319 26.751C21.1319 26.3727 21.1319 26.2995 21.1265 26.2237C21.1211 26.1478 21.1021 26.1 21.0199 26.0819C20.9877 26.0767 20.9551 26.0742 20.9224 26.0747C20.8953 26.0747 20.8809 26.0747 20.8809 26.0521C20.8809 26.0295 20.898 26.0304 20.935 26.0304C21.0669 26.0304 21.2231 26.0377 21.2962 26.0377C21.3983 26.0377 21.5428 26.0304 21.6574 26.0304C21.9681 26.0304 22.08 26.1343 22.1198 26.1713C22.1979 26.2503 22.2425 26.3564 22.2444 26.4675C22.2468 26.548 22.2326 26.6281 22.2026 26.7028C22.1726 26.7776 22.1275 26.8453 22.0701 26.9018C22.0127 26.9582 21.9443 27.0022 21.869 27.031C21.7938 27.0597 21.7135 27.0726 21.6331 27.0689C21.6156 27.0702 21.5981 27.0702 21.5807 27.0689C21.568 27.0689 21.5509 27.0689 21.5509 27.0463C21.5509 27.0237 21.568 27.0192 21.6204 27.0192C21.7595 27.0192 21.9536 26.863 21.9536 26.6092C21.9576 26.5402 21.9466 26.4711 21.9214 26.4067C21.8961 26.3424 21.8572 26.2842 21.8073 26.2363C21.7392 26.1741 21.6503 26.1397 21.5581 26.1397C21.5256 26.1386 21.4931 26.142 21.4615 26.1496C21.4488 26.1496 21.4416 26.1695 21.4416 26.1966V27.1899C21.4416 27.4183 21.4416 27.6143 21.4543 27.7217C21.4615 27.7913 21.4768 27.8454 21.5509 27.8554C21.5931 27.8615 21.6356 27.8648 21.6782 27.8653C21.7053 27.8653 21.717 27.8734 21.717 27.8852C21.717 27.8969 21.6972 27.9105 21.6701 27.9105C21.5066 27.9105 21.3495 27.9032 21.2854 27.9032C21.2213 27.9032 21.0714 27.9105 20.9721 27.9105C20.9396 27.9105 20.9224 27.9032 20.9224 27.8852C20.9224 27.8671 20.9323 27.8653 20.9621 27.8653C20.9925 27.8656 21.0228 27.8623 21.0524 27.8554C21.1021 27.8454 21.1147 27.7913 21.1247 27.719C21.1373 27.6143 21.1373 27.4183 21.1373 27.1899L21.1319 26.751Z" fill="#FF0000"/>
<path d="M23.149 26.751C23.149 26.3727 23.149 26.2995 23.1445 26.2237C23.14 26.1478 23.1192 26.1 23.0379 26.0819C23.0057 26.0767 22.973 26.0742 22.9404 26.0747C22.9133 26.0747 22.8979 26.0747 22.8979 26.0521C22.8979 26.0295 22.916 26.0304 22.953 26.0304C23.0849 26.0304 23.2411 26.0377 23.3142 26.0377C23.3738 26.0377 23.53 26.0304 23.6194 26.0304C23.6565 26.0304 23.6745 26.0349 23.6745 26.0521C23.6745 26.0693 23.6592 26.0747 23.6348 26.0747C23.6105 26.075 23.5864 26.0774 23.5625 26.0819C23.4957 26.0945 23.4723 26.137 23.4723 26.2237C23.4723 26.3104 23.4677 26.3727 23.4677 26.751V27.0987C23.4677 27.4599 23.5391 27.6107 23.661 27.71C23.7486 27.7808 23.8591 27.8172 23.9716 27.812C24.0992 27.8138 24.2224 27.7655 24.3147 27.6775C24.4511 27.5411 24.4583 27.3163 24.4583 27.0616V26.751C24.4583 26.3727 24.4583 26.2995 24.4538 26.2237C24.4493 26.1478 24.4285 26.1 24.3472 26.0819C24.3174 26.0769 24.2872 26.0745 24.2569 26.0747C24.229 26.0747 24.2145 26.0747 24.2145 26.0521C24.2145 26.0295 24.2317 26.0304 24.2669 26.0304C24.3933 26.0304 24.5495 26.0377 24.5522 26.0377C24.582 26.0377 24.7382 26.0304 24.8358 26.0304C24.8701 26.0304 24.8881 26.0349 24.8881 26.0521C24.8881 26.0693 24.8728 26.0747 24.843 26.0747C24.8187 26.075 24.7946 26.0774 24.7707 26.0819C24.7039 26.0945 24.6804 26.137 24.6804 26.2237C24.6804 26.3104 24.6759 26.3727 24.6759 26.751V27.0165C24.6759 27.2928 24.6488 27.5854 24.4403 27.7642C24.2971 27.8881 24.112 27.9527 23.9228 27.9448C23.7241 27.9585 23.5274 27.8976 23.3711 27.7741C23.2447 27.6594 23.1499 27.4752 23.1499 27.1149L23.149 26.751Z" fill="#FF0000"/>
<path d="M26.201 26.1695L25.8308 26.1794C25.6863 26.1794 25.6267 26.1966 25.5897 26.2517C25.5709 26.2794 25.5565 26.3098 25.5472 26.342C25.5427 26.3618 25.5355 26.3718 25.5201 26.3718C25.5048 26.3718 25.4976 26.3591 25.4976 26.332C25.4976 26.3049 25.5454 26.0611 25.5499 26.0458C25.5544 26.0304 25.5653 25.9988 25.5797 25.9988C25.6142 26.0123 25.6499 26.0223 25.6863 26.0286C25.7585 26.0359 25.8533 26.0413 25.9355 26.0413H26.9189C26.9763 26.0415 27.0336 26.0372 27.0904 26.0286C27.1125 26.0233 27.1348 26.0191 27.1573 26.016C27.1753 26.016 27.178 26.0313 27.178 26.0684C27.178 26.1207 27.1699 26.2923 27.1699 26.3564C27.1699 26.3817 27.1627 26.3962 27.1473 26.3962C27.132 26.3962 27.1229 26.3844 27.1202 26.3465V26.3194C27.1157 26.2553 27.0489 26.1849 26.8277 26.1803L26.5143 26.1731V27.1917C26.5143 27.4201 26.5143 27.6161 26.527 27.7235C26.5342 27.7931 26.5495 27.8473 26.6236 27.8572C26.6655 27.8633 26.7077 27.8666 26.75 27.8671C26.778 27.8671 26.7897 27.8753 26.7897 27.887C26.7897 27.8987 26.7699 27.9123 26.7428 27.9123C26.5793 27.9123 26.4222 27.905 26.3527 27.905C26.2832 27.905 26.1396 27.9123 26.0394 27.9123C26.0077 27.9123 25.9897 27.9051 25.9897 27.887C25.9897 27.8689 25.9996 27.8671 26.0294 27.8671C26.0598 27.8675 26.0901 27.8642 26.1197 27.8572C26.1703 27.8473 26.1847 27.7931 26.192 27.7208C26.2046 27.6161 26.2046 27.4201 26.2046 27.1917L26.201 26.1695Z" fill="#FF0000"/>
<path d="M29.3751 26.751C29.3751 26.3727 29.3751 26.2995 29.3696 26.2237C29.3642 26.1478 29.3453 26.1 29.2631 26.0819C29.2309 26.0767 29.1982 26.0742 29.1656 26.0747C29.1385 26.0747 29.124 26.0747 29.124 26.0521C29.124 26.0295 29.1412 26.0304 29.1782 26.0304C29.31 26.0304 29.4663 26.0377 29.5394 26.0377C29.6125 26.0377 29.7733 26.0304 29.9223 26.0304C30.2329 26.0304 30.6447 26.0304 30.9156 26.3131C31.0756 26.484 31.1619 26.7111 31.1557 26.9452C31.1593 27.2028 31.0621 27.4517 30.8849 27.6387C30.7702 27.7551 30.5119 27.9321 30.0523 27.9321C29.962 27.9321 29.8609 27.924 29.766 27.9168C29.6712 27.9096 29.5854 27.9023 29.5231 27.9023C29.4952 27.9023 29.441 27.9023 29.3814 27.9023C29.3218 27.9023 29.2595 27.9077 29.2098 27.9077C29.1773 27.9077 29.1601 27.9005 29.1601 27.8825C29.1601 27.8644 29.1701 27.8626 29.1999 27.8626C29.2303 27.8629 29.2606 27.8595 29.2902 27.8527C29.3398 27.8427 29.3525 27.7886 29.3624 27.7163C29.3751 27.6116 29.3751 27.4156 29.3751 27.1872V26.751ZM29.6857 27.0219C29.6857 27.2856 29.6857 27.4734 29.6902 27.524C29.6881 27.588 29.6973 27.6519 29.7173 27.7127C29.7498 27.7606 29.8464 27.812 30.0433 27.812C30.2961 27.812 30.4659 27.7624 30.6149 27.6314C30.7638 27.5005 30.8234 27.2702 30.8234 27.0129C30.8277 26.8986 30.8088 26.7846 30.7678 26.6779C30.7268 26.5711 30.6647 26.4737 30.5851 26.3916C30.3914 26.2193 30.1378 26.1301 29.8789 26.1433C29.8245 26.1424 29.7703 26.1482 29.7173 26.1605C29.7073 26.1639 29.6988 26.1708 29.6934 26.1799C29.6879 26.189 29.6858 26.1997 29.6875 26.2101C29.6875 26.295 29.6875 26.5108 29.6875 26.7077L29.6857 27.0219Z" fill="#FF0000"/>
<path d="M31.9268 26.9695C31.9268 26.5442 32.2076 25.9952 32.9526 25.9952C33.572 25.9952 33.9567 26.3564 33.9567 26.9244C33.9567 27.4924 33.5594 27.943 32.9282 27.943C32.2148 27.943 31.9268 27.4093 31.9268 26.9695ZM33.609 27.0165C33.609 26.4603 33.2885 26.1135 32.8812 26.1135C32.595 26.1135 32.2699 26.2724 32.2699 26.891C32.2699 27.4084 32.5552 27.8183 33.0329 27.8183C33.2063 27.8193 33.609 27.7344 33.609 27.0165Z" fill="#FF0000"/>
<path d="M36.3388 27.2603C36.3261 27.2603 36.3216 27.2603 36.3162 27.2802L36.1816 27.635C36.1614 27.6833 36.1489 27.7345 36.1446 27.7867C36.1446 27.8319 36.1672 27.8635 36.244 27.8635H36.2819C36.3117 27.8635 36.3189 27.8689 36.3189 27.8834C36.3189 27.8978 36.3036 27.9086 36.2765 27.9086C36.197 27.9086 36.0904 27.9014 36.0128 27.9014C35.9857 27.9014 35.8493 27.9086 35.7202 27.9086C35.6877 27.9086 35.6724 27.9032 35.6724 27.8834C35.6724 27.8635 35.6823 27.8635 35.7022 27.8635C35.7281 27.8634 35.754 27.8619 35.7798 27.859C35.8936 27.8436 35.9415 27.7596 35.9911 27.635L36.6142 26.0747C36.644 26.0024 36.6593 25.9753 36.6837 25.9753C36.7081 25.9753 36.7216 25.9979 36.746 26.0548C36.8056 26.1921 37.2029 27.2052 37.3628 27.5827C37.4531 27.8066 37.5289 27.8418 37.5813 27.8536C37.6154 27.8606 37.6503 27.8639 37.6851 27.8635C37.705 27.8635 37.7176 27.8635 37.7176 27.8834C37.7176 27.9032 37.6951 27.9086 37.603 27.9086C37.5108 27.9086 37.3321 27.9086 37.1334 27.9032C37.0892 27.9032 37.0594 27.9032 37.0594 27.8834C37.0594 27.8635 37.0693 27.8635 37.0937 27.8617C37.0993 27.8598 37.1044 27.8567 37.1086 27.8526C37.1129 27.8485 37.1162 27.8435 37.1184 27.838C37.1205 27.8325 37.1214 27.8266 37.1211 27.8207C37.1207 27.8148 37.1191 27.8091 37.1162 27.8039L36.9176 27.2775C36.916 27.2721 36.9126 27.2675 36.908 27.2644C36.9034 27.2613 36.8978 27.2598 36.8923 27.2603H36.3388ZM36.8453 27.1357C36.858 27.1357 36.8607 27.1285 36.858 27.1212L36.634 26.5072C36.634 26.4973 36.6295 26.4846 36.6223 26.4846C36.6151 26.4846 36.6097 26.4973 36.607 26.5072L36.3785 27.1185C36.3785 27.1285 36.3785 27.1357 36.3884 27.1357H36.8453Z" fill="#FF0000"/>
<path d="M38.3589 26.751C38.3589 26.3727 38.3589 26.2995 38.3535 26.2237C38.3481 26.1478 38.3291 26.1 38.247 26.0819C38.2147 26.0767 38.1821 26.0742 38.1494 26.0747C38.1224 26.0747 38.1079 26.0747 38.1079 26.0521C38.1079 26.0295 38.1251 26.0304 38.1621 26.0304C38.2939 26.0304 38.4501 26.0377 38.5233 26.0377C38.5829 26.0377 38.7391 26.0304 38.8285 26.0304C38.8664 26.0304 38.8836 26.0349 38.8836 26.0521C38.8836 26.0693 38.8682 26.0747 38.8438 26.0747C38.8196 26.075 38.7954 26.0774 38.7716 26.0819C38.7048 26.0945 38.6813 26.137 38.6813 26.2237C38.6813 26.3104 38.6768 26.3727 38.6768 26.751V27.0987C38.6768 27.4599 38.749 27.6107 38.87 27.71C38.9576 27.7808 39.0681 27.8172 39.1807 27.812C39.3082 27.8138 39.4314 27.7655 39.5238 27.6775C39.661 27.5411 39.6683 27.3163 39.6683 27.0616V26.751C39.6683 26.3727 39.6683 26.2995 39.6629 26.2237C39.6574 26.1478 39.6385 26.1 39.5563 26.0819C39.5265 26.0769 39.4963 26.0745 39.466 26.0747C39.4389 26.0747 39.4236 26.0747 39.4236 26.0521C39.4236 26.0295 39.4407 26.0304 39.4759 26.0304C39.6024 26.0304 39.7595 26.0377 39.7613 26.0377C39.7911 26.0377 39.9482 26.0304 40.0448 26.0304C40.08 26.0304 40.0972 26.0349 40.0972 26.0521C40.0972 26.0693 40.0818 26.0747 40.052 26.0747C40.0278 26.075 40.0036 26.0774 39.9798 26.0819C39.913 26.0945 39.8895 26.137 39.8895 26.2237C39.8895 26.3104 39.8841 26.3727 39.8841 26.751V27.0165C39.8841 27.2928 39.857 27.5854 39.6484 27.7642C39.5052 27.8881 39.3202 27.9527 39.131 27.9448C38.9325 27.9584 38.7361 27.8976 38.5802 27.7741C38.4529 27.6594 38.3589 27.4752 38.3589 27.1149V26.751Z" fill="#FF0000"/>
<path d="M41.41 26.1695L41.0397 26.1794C40.8953 26.1794 40.8357 26.1966 40.7986 26.2517C40.7798 26.2794 40.7655 26.3098 40.7562 26.342C40.7517 26.3618 40.7445 26.3718 40.7291 26.3718C40.7138 26.3718 40.7065 26.3591 40.7065 26.332C40.7065 26.3049 40.7544 26.0611 40.7589 26.0458C40.7634 26.0304 40.7743 25.9988 40.7887 25.9988C40.8231 26.0123 40.8588 26.0223 40.8953 26.0286C40.9675 26.0359 41.0623 26.0413 41.1445 26.0413H42.1278C42.1853 26.0415 42.2426 26.0372 42.2994 26.0286C42.3364 26.0214 42.3572 26.016 42.3662 26.016C42.3753 26.016 42.387 26.0313 42.387 26.0684C42.387 26.1207 42.3789 26.2923 42.3789 26.3564C42.3789 26.3817 42.3717 26.3962 42.3572 26.3962C42.3428 26.3962 42.3319 26.3844 42.3292 26.3465V26.3194C42.3247 26.2553 42.2579 26.1849 42.0366 26.1803L41.7233 26.1731V27.1917C41.7233 27.4201 41.7233 27.6161 41.7359 27.7235C41.7432 27.7931 41.7585 27.8473 41.8326 27.8572C41.8747 27.8633 41.9173 27.8666 41.9599 27.8671C41.987 27.8671 41.9996 27.8753 41.9996 27.887C41.9996 27.8987 41.9789 27.9123 41.9518 27.9123C41.7883 27.9123 41.6312 27.905 41.5617 27.905C41.4921 27.905 41.3486 27.9123 41.2492 27.9123C41.2167 27.9123 41.1987 27.9051 41.1987 27.887C41.1987 27.8689 41.2086 27.8671 41.2393 27.8671C41.2697 27.8674 41.3 27.8641 41.3296 27.8572C41.3793 27.8473 41.3937 27.7931 41.4009 27.7208C41.4136 27.6161 41.4136 27.4201 41.4136 27.1917L41.41 26.1695Z" fill="#FF0000"/>
<path d="M43.2919 27.2603C43.2793 27.2603 43.2738 27.2603 43.2693 27.2802L43.1348 27.635C43.1145 27.6833 43.102 27.7345 43.0978 27.7867C43.0978 27.8319 43.1203 27.8635 43.1971 27.8635H43.2341C43.2639 27.8635 43.272 27.8689 43.272 27.8834C43.272 27.8978 43.2567 27.9086 43.2296 27.9086C43.1501 27.9086 43.0427 27.9014 42.9659 27.9014C42.9388 27.9014 42.8016 27.9086 42.6724 27.9086C42.6408 27.9086 42.6255 27.9032 42.6255 27.8834C42.6255 27.8635 42.6354 27.8635 42.6553 27.8635C42.6809 27.8634 42.7066 27.8619 42.732 27.859C42.8467 27.8436 42.8937 27.7596 42.9433 27.635L43.5673 26.0747C43.5971 26.0024 43.6116 25.9753 43.6368 25.9753C43.6621 25.9753 43.6739 25.9979 43.6991 26.0548C43.7587 26.1921 44.1561 27.2052 44.315 27.5827C44.4053 27.8066 44.482 27.8418 44.5335 27.8536C44.568 27.8605 44.6031 27.8639 44.6382 27.8635C44.6581 27.8635 44.6708 27.8635 44.6708 27.8834C44.6708 27.9032 44.6482 27.9086 44.5561 27.9086C44.464 27.9086 44.2852 27.9086 44.0865 27.9032C44.0423 27.9032 44.0125 27.9032 44.0125 27.8834C44.0125 27.8635 44.0224 27.8635 44.0468 27.8617C44.0523 27.8596 44.0573 27.8565 44.0615 27.8524C44.0656 27.8483 44.0689 27.8433 44.071 27.8379C44.0732 27.8324 44.0741 27.8265 44.0738 27.8207C44.0735 27.8148 44.072 27.8091 44.0694 27.8039L43.8707 27.2775C43.8691 27.2721 43.8657 27.2675 43.8611 27.2644C43.8565 27.2613 43.851 27.2598 43.8454 27.2603H43.2919ZM43.7985 27.1357C43.8111 27.1357 43.8129 27.1285 43.8111 27.1212L43.5872 26.5072C43.5872 26.4973 43.5818 26.4846 43.5745 26.4846C43.5673 26.4846 43.5628 26.4973 43.5601 26.5072L43.3316 27.1185C43.3316 27.1285 43.3316 27.1357 43.3416 27.1357H43.7985Z" fill="#FF0000"/>
<path d="M46.6721 26.751C46.6721 26.3727 46.6721 26.2995 46.6666 26.2237C46.6612 26.1478 46.6368 26.0973 46.5827 26.0846C46.5531 26.0776 46.5228 26.0743 46.4924 26.0747C46.468 26.0747 46.4526 26.0747 46.4526 26.0503C46.4526 26.0259 46.4725 26.0305 46.5122 26.0305C46.607 26.0305 46.7633 26.0377 46.8355 26.0377C46.9077 26.0377 47.0441 26.0305 47.1389 26.0305C47.1714 26.0305 47.1913 26.035 47.1913 26.0503C47.1913 26.0657 47.1759 26.0747 47.1516 26.0747C47.1264 26.0751 47.1013 26.0775 47.0766 26.0819C47.0098 26.0946 46.9863 26.137 46.9863 26.2237C46.9863 26.3104 46.9863 26.3727 46.9863 26.751V27.1881C46.9863 27.4292 46.9863 27.6251 46.9962 27.7299C47.0035 27.7967 47.0206 27.8409 47.0956 27.8509C47.1374 27.857 47.1797 27.8603 47.222 27.8608C47.25 27.8608 47.2617 27.8689 47.2617 27.8807C47.2617 27.8924 47.2418 27.906 47.2148 27.906C47.0504 27.906 46.8942 27.8987 46.8274 27.8987C46.7606 27.8987 46.6134 27.906 46.514 27.906C46.4815 27.906 46.4644 27.8987 46.4644 27.8807C46.4644 27.8626 46.4743 27.8608 46.5041 27.8608C46.5345 27.8611 46.5648 27.8578 46.5944 27.8509C46.6441 27.8409 46.6594 27.7994 46.6666 27.7272C46.6793 27.6224 46.6793 27.4265 46.6793 27.1854L46.6721 26.751Z" fill="#FF0000"/>
<path d="M49.0466 27.7642C49.3004 27.7642 49.397 27.7028 49.4367 27.6278C49.4575 27.5905 49.4727 27.5503 49.4819 27.5086C49.4873 27.4833 49.4918 27.4689 49.5062 27.4689C49.5207 27.4689 49.5315 27.486 49.5315 27.5456C49.5247 27.6481 49.5081 27.7497 49.4819 27.849C49.4692 27.8933 49.4521 27.9132 49.4069 27.9132C48.9924 27.9132 48.5753 27.9014 48.0732 27.9014C48.0461 27.9014 48.0308 27.8933 48.0308 27.8761C48.0308 27.859 48.038 27.8463 48.0678 27.8021C48.4181 27.2549 48.7902 26.6932 49.1189 26.1695H48.6322C48.5094 26.1606 48.3861 26.1784 48.271 26.2219C48.2358 26.2423 48.2055 26.2702 48.1823 26.3036C48.1591 26.337 48.1434 26.375 48.1364 26.4151C48.1319 26.4503 48.122 26.4603 48.1066 26.4603C48.0913 26.4603 48.0867 26.4476 48.0867 26.4178C48.0867 26.3609 48.1238 26.1343 48.1364 26.0566C48.1418 26.0214 48.1518 26.0088 48.1662 26.0088C48.1988 26.0172 48.232 26.0232 48.2655 26.0268C48.5021 26.0368 48.6213 26.034 48.7225 26.034H49.481C49.5053 26.034 49.5234 26.0413 49.5234 26.0539C49.5207 26.0711 49.5135 26.0873 49.5026 26.1009C49.1604 26.658 48.7802 27.2269 48.4326 27.7606L49.0466 27.7642Z" fill="#FF0000"/>
<path d="M51.6593 27.8789C51.6195 27.8617 51.6123 27.8491 51.6123 27.794C51.6123 27.6576 51.6222 27.5087 51.6249 27.4689C51.6277 27.4292 51.6349 27.4039 51.6547 27.4039C51.6746 27.4039 51.6791 27.4265 51.6791 27.4463C51.6813 27.4893 51.6888 27.5318 51.7017 27.5728C51.7225 27.6493 51.7692 27.7163 51.834 27.7621C51.8988 27.8079 51.9775 27.8297 52.0566 27.8238C52.2805 27.8238 52.3898 27.6721 52.3898 27.5412C52.3898 27.4102 52.3528 27.3046 52.146 27.1429L52.0322 27.0526C51.7613 26.8395 51.6647 26.6653 51.6647 26.4639C51.6647 26.193 51.8931 25.9943 52.2381 25.9943C52.3497 25.9931 52.4609 26.0074 52.5686 26.0368C52.5911 26.0368 52.6038 26.0494 52.6038 26.0666C52.6038 26.0991 52.5939 26.1704 52.5939 26.3646C52.5939 26.4196 52.5866 26.4395 52.5659 26.4395C52.5451 26.4395 52.5415 26.4242 52.5415 26.3944C52.5367 26.3343 52.514 26.2771 52.4765 26.23C52.4448 26.1891 52.4035 26.1566 52.3562 26.1355C52.3089 26.1144 52.2572 26.1053 52.2056 26.109C52.025 26.109 51.9094 26.2156 51.9094 26.3646C51.9094 26.4792 51.9663 26.5659 52.1731 26.7258L52.2426 26.7781C52.5433 27.0048 52.6498 27.1754 52.6498 27.4102C52.6513 27.4963 52.6306 27.5814 52.5896 27.6571C52.5486 27.7329 52.4888 27.7968 52.416 27.8428C52.297 27.914 52.1599 27.9491 52.0214 27.9439C51.8974 27.9485 51.7739 27.9263 51.6593 27.8789Z" fill="#FF0000"/>
<path d="M53.8786 27.571C53.8831 27.7642 53.9156 27.8292 53.9689 27.8418C54.0107 27.8549 54.0543 27.8607 54.0981 27.859C54.1251 27.859 54.1405 27.8644 54.1405 27.8789C54.1405 27.8933 54.1179 27.9041 54.0836 27.9041C53.922 27.9041 53.8226 27.8969 53.7748 27.8969C53.7531 27.8969 53.6357 27.9041 53.5039 27.9041C53.4723 27.9041 53.4497 27.9041 53.4497 27.8789C53.4497 27.8536 53.4642 27.859 53.4894 27.859C53.5271 27.8598 53.5647 27.8559 53.6014 27.8473C53.6655 27.8274 53.6755 27.757 53.6782 27.5384L53.7007 26.0675C53.7007 26.0178 53.708 25.9835 53.7323 25.9835C53.7567 25.9835 53.782 26.016 53.8226 26.0603C53.8633 26.1045 54.2299 26.4973 54.5929 26.8576C54.7617 27.0273 55.0977 27.3849 55.1401 27.4247H55.1518L55.1275 26.3086C55.1275 26.1578 55.1022 26.1099 55.0426 26.0855C54.9998 26.073 54.9552 26.0678 54.9107 26.0702C54.8809 26.0702 54.871 26.063 54.871 26.0476C54.871 26.0323 54.899 26.0259 54.936 26.0259C55.0652 26.0259 55.1843 26.0332 55.2367 26.0332C55.2638 26.0332 55.3586 26.0259 55.4805 26.0259C55.5121 26.0259 55.5374 26.0259 55.5374 26.0476C55.5374 26.0693 55.5221 26.0702 55.4923 26.0702C55.4674 26.0693 55.4425 26.0717 55.4182 26.0774C55.3487 26.0982 55.3279 26.1496 55.3279 26.2887L55.3008 27.8572C55.3008 27.9114 55.2909 27.934 55.2683 27.934C55.2457 27.934 55.2114 27.9069 55.1834 27.8789C55.0272 27.7299 54.7094 27.4048 54.4511 27.1483C54.1929 26.8919 53.9039 26.5695 53.8597 26.5226H53.8515L53.8786 27.571Z" fill="#FF0000"/>
<path d="M56.2949 26.9695C56.2949 26.5442 56.5758 25.9952 57.3207 25.9952C57.9393 25.9952 58.3248 26.3564 58.3248 26.9244C58.3248 27.4924 57.9275 27.943 57.2963 27.943C56.5821 27.943 56.2949 27.4093 56.2949 26.9695ZM57.9772 27.0165C57.9772 26.4603 57.6566 26.1135 57.2485 26.1135C56.9631 26.1135 56.6381 26.2724 56.6381 26.891C56.6381 27.4084 56.9234 27.8183 57.4002 27.8183C57.5736 27.8193 57.9763 27.7344 57.9763 27.0165H57.9772Z" fill="#FF0000"/>
<path d="M59.1369 26.2733C59.08 26.137 59.0376 26.1099 58.9482 26.0846C58.9165 26.0772 58.8841 26.0738 58.8516 26.0747C58.829 26.0747 58.8218 26.0674 58.8218 26.0521C58.8218 26.0367 58.8489 26.0304 58.8859 26.0304C59.0177 26.0304 59.1568 26.0377 59.2471 26.0377C59.3094 26.0377 59.4277 26.0304 59.5532 26.0304C59.583 26.0304 59.6101 26.0349 59.6101 26.0521C59.6101 26.0693 59.5956 26.0747 59.5731 26.0747C59.5399 26.0714 59.5064 26.0773 59.4764 26.0918C59.468 26.0976 59.4613 26.1055 59.4569 26.1147C59.4524 26.1238 59.4505 26.134 59.4512 26.1442C59.4616 26.2103 59.4807 26.2746 59.508 26.3356L59.9361 27.4635H59.946C60.0525 27.1926 60.3758 26.3907 60.4354 26.2264C60.4476 26.1976 60.4552 26.1672 60.458 26.1361C60.4585 26.1258 60.4556 26.1156 60.4497 26.1071C60.4438 26.0986 60.4353 26.0923 60.4255 26.0891C60.3932 26.0799 60.3597 26.0756 60.3262 26.0765C60.3036 26.0765 60.2837 26.0765 60.2837 26.0566C60.2837 26.0368 60.3063 26.0322 60.3532 26.0322C60.4779 26.0322 60.5817 26.0395 60.6142 26.0395C60.6467 26.0395 60.7731 26.0322 60.8481 26.0322C60.8797 26.0322 60.8996 26.0367 60.8996 26.0539C60.8996 26.0711 60.8851 26.0765 60.8598 26.0765C60.8171 26.0742 60.7747 26.0846 60.7379 26.1063C60.7063 26.1288 60.6684 26.1713 60.6016 26.3302C60.5049 26.5632 60.4372 26.6977 60.3036 27.0038C60.1447 27.365 60.0282 27.6359 59.9731 27.7615C59.9081 27.905 59.8936 27.9421 59.8584 27.9421C59.8232 27.9421 59.8115 27.9077 59.7681 27.7913L59.1369 26.2733Z" fill="#FF0000"/>
<path d="M61.6225 27.2603C61.6099 27.2603 61.6054 27.2603 61.6 27.2802L61.4663 27.635C61.4456 27.6832 61.4331 27.7345 61.4293 27.7867C61.4293 27.8319 61.451 27.8635 61.5286 27.8635H61.5656C61.5954 27.8635 61.6027 27.8689 61.6027 27.8834C61.6027 27.8978 61.5882 27.9086 61.5602 27.9086C61.4808 27.9086 61.3742 27.9014 61.2975 27.9014C61.2704 27.9014 61.1331 27.9086 61.004 27.9086C60.9715 27.9086 60.957 27.9032 60.957 27.8834C60.957 27.8635 60.967 27.8635 60.9868 27.8635C61.0125 27.8634 61.0381 27.8619 61.0636 27.859C61.1783 27.8436 61.2252 27.7596 61.2749 27.635L61.8988 26.0747C61.9286 26.0024 61.9431 25.9753 61.9684 25.9753C61.9937 25.9753 62.0054 25.9979 62.0298 26.0548C62.0894 26.1921 62.4876 27.2052 62.6465 27.5827C62.7368 27.8066 62.8127 27.8418 62.865 27.8536C62.8995 27.8606 62.9346 27.8639 62.9698 27.8635C62.9897 27.8635 63.0014 27.8635 63.0014 27.8834C63.0014 27.9032 62.9797 27.9086 62.8876 27.9086C62.7955 27.9086 62.6167 27.9086 62.4181 27.9032C62.3729 27.9032 62.3431 27.9032 62.3431 27.8834C62.3431 27.8635 62.3531 27.8635 62.3783 27.8617C62.3838 27.8596 62.3887 27.8563 62.3927 27.8522C62.3968 27.848 62.4 27.8431 62.402 27.8376C62.4041 27.8322 62.4049 27.8263 62.4046 27.8205C62.4043 27.8147 62.4027 27.8091 62.4 27.8039L62.2013 27.2775C62.2001 27.2721 62.1969 27.2674 62.1924 27.2643C62.1879 27.2611 62.1824 27.2597 62.177 27.2603H61.6225ZM62.13 27.1357C62.1418 27.1357 62.1445 27.1285 62.1418 27.1212L61.9187 26.5072C61.9187 26.4973 61.9133 26.4846 61.9061 26.4846C61.8988 26.4846 61.8934 26.4973 61.8907 26.5072L61.6623 27.1185C61.6623 27.1285 61.6623 27.1357 61.6722 27.1357H62.13Z" fill="#FF0000"/>
<path d="M10.1516 26.8612H0.0327148V27.1131H10.1516V26.8612Z" fill="white"/>
<path d="M76.0007 26.8612H65.2344V27.1131H76.0007V26.8612Z" fill="white"/>
</g>
<defs>
<linearGradient id="paint0_linear_310_25800" x1="-6.90761e-05" y1="5.86761" x2="48.3161" y2="5.86761" gradientUnits="userSpaceOnUse">
<stop stop-color="#6CB5E4"/>
<stop offset="0.09" stop-color="#63B0E1"/>
<stop offset="0.24" stop-color="#49A3D9"/>
<stop offset="0.44" stop-color="#208DCC"/>
<stop offset="0.57" stop-color="#007CC2"/>
<stop offset="1" stop-color="#0059A9"/>
</linearGradient>
<linearGradient id="paint1_linear_310_25800" x1="39.3704" y1="6.53313" x2="76.001" y2="6.53313" gradientUnits="userSpaceOnUse">
<stop stop-color="#6CB5E4"/>
<stop offset="0.09" stop-color="#63B0E1"/>
<stop offset="0.24" stop-color="#49A3D9"/>
<stop offset="0.44" stop-color="#208DCC"/>
<stop offset="0.57" stop-color="#007CC2"/>
<stop offset="1" stop-color="#0059A9"/>
</linearGradient>
<linearGradient id="paint2_linear_310_25800" x1="0.654786" y1="4.0454" x2="2.34608" y2="4.0454" gradientUnits="userSpaceOnUse">
<stop stop-color="#6CB5E4"/>
<stop offset="0.09" stop-color="#63B0E1"/>
<stop offset="0.24" stop-color="#49A3D9"/>
<stop offset="0.44" stop-color="#208DCC"/>
<stop offset="0.57" stop-color="#007CC2"/>
<stop offset="1" stop-color="#0059A9"/>
</linearGradient>
<linearGradient id="paint3_linear_310_25800" x1="24.9214" y1="3.30495" x2="40.9115" y2="3.30495" gradientUnits="userSpaceOnUse">
<stop stop-color="#6CB5E4"/>
<stop offset="0.09" stop-color="#63B0E1"/>
<stop offset="0.24" stop-color="#49A3D9"/>
<stop offset="0.44" stop-color="#208DCC"/>
<stop offset="0.57" stop-color="#007CC2"/>
<stop offset="1" stop-color="#0059A9"/>
</linearGradient>
<linearGradient id="paint4_linear_310_25800" x1="24.0837" y1="6.06087" x2="40.537" y2="6.06087" gradientUnits="userSpaceOnUse">
<stop stop-color="#6CB5E4"/>
<stop offset="0.09" stop-color="#63B0E1"/>
<stop offset="0.24" stop-color="#49A3D9"/>
<stop offset="0.44" stop-color="#208DCC"/>
<stop offset="0.57" stop-color="#007CC2"/>
<stop offset="1" stop-color="#0059A9"/>
</linearGradient>
<linearGradient id="paint5_linear_310_25800" x1="4.45511" y1="23.6456" x2="4.45511" y2="15.2542" gradientUnits="userSpaceOnUse">
<stop stop-color="white"/>
<stop offset="1"/>
</linearGradient>
<linearGradient id="paint6_linear_310_25800" x1="13.2109" y1="23.6456" x2="13.2109" y2="15.2542" gradientUnits="userSpaceOnUse">
<stop stop-color="white"/>
<stop offset="1"/>
</linearGradient>
<linearGradient id="paint7_linear_310_25800" x1="22.0969" y1="23.6456" x2="22.0969" y2="15.2542" gradientUnits="userSpaceOnUse">
<stop stop-color="white"/>
<stop offset="1"/>
</linearGradient>
<linearGradient id="paint8_linear_310_25800" x1="31.0807" y1="23.6456" x2="31.0807" y2="15.2542" gradientUnits="userSpaceOnUse">
<stop stop-color="white"/>
<stop offset="1"/>
</linearGradient>
<linearGradient id="paint9_linear_310_25800" x1="40.4982" y1="23.6457" x2="40.4982" y2="15.2542" gradientUnits="userSpaceOnUse">
<stop stop-color="white"/>
<stop offset="1"/>
</linearGradient>
<linearGradient id="paint10_linear_310_25800" x1="47.934" y1="23.6457" x2="47.934" y2="15.2542" gradientUnits="userSpaceOnUse">
<stop stop-color="white"/>
<stop offset="1"/>
</linearGradient>
<linearGradient id="paint11_linear_310_25800" x1="56.4538" y1="23.6456" x2="56.4538" y2="15.2542" gradientUnits="userSpaceOnUse">
<stop stop-color="white"/>
<stop offset="1"/>
</linearGradient>
<linearGradient id="paint12_linear_310_25800" x1="63.833" y1="23.6457" x2="63.833" y2="15.2542" gradientUnits="userSpaceOnUse">
<stop stop-color="white"/>
<stop offset="1"/>
</linearGradient>
<linearGradient id="paint13_linear_310_25800" x1="71.5828" y1="23.6456" x2="71.5828" y2="15.2542" gradientUnits="userSpaceOnUse">
<stop stop-color="white"/>
<stop offset="1"/>
</linearGradient>
<clipPath id="clip0_310_25800">
<rect width="76" height="27.9439" fill="white"/>
</clipPath>
</defs>
</svg>
